<svg id="be8d3234-0fa5-43a7-bda7-64a2a90d3169" data-name="3" xmlns="http://www.w3.org/2000/svg" viewBox="0 0 31.59 26.51"><defs></defs><path class="aff17ffb-46f3-49ed-9249-4004201574ca" d="M13.23,12.39V10.63c0-.27.06-.33.32-.34s.18-.06.18-.19V9.24c0-.18.08-.26.26-.26a1.61,1.61,0,0,1,.44,0c.16,0,.19,0,.19-.17V6.9c0-.27,0-.31.29-.36a2,2,0,0,1,.59,0c.14,0,.19,0,.19-.17,0-1.11,0-2.23,0-3.34a.36.36,0,0,0-.09-.22,1.13,1.13,0,0,0-1.15-.4l-.26,0c-.88,0-1.75.11-2.63.13h-.17a1.57,1.57,0,0,0-.64-.14c-.07,0-.1-.06-.12-.13a4.24,4.24,0,0,1,0-1.94.15.15,0,0,1,.18-.12L13.4.46l2.07.18a.19.19,0,0,0,.21-.1A1.48,1.48,0,0,1,18,.53a.21.21,0,0,0,.23.1l2.18-.2L22.82.2c.12,0,.18,0,.21.14a3.53,3.53,0,0,1,0,1.88c0,.13-.1.19-.24.18a.92.92,0,0,0-.4.05,1.26,1.26,0,0,1-.58,0l-1.19,0-1.72,0a1.19,1.19,0,0,0-.88.48S18,3,18,3V6.4c0,.15.06.19.2.19a3.45,3.45,0,0,1,.64,0,.25.25,0,0,1,.23.28c0,.63,0,1.26,0,1.88,0,.23,0,.24.23.21h.07c.49,0,.56,0,.56.51v.66c0,.1,0,.16.15.15s.27.07.27.27a.54.54,0,0,1,0,.18.78.78,0,0,0,.2.62.88.88,0,0,1,.2.61c0,.58,0,1.16,0,1.75a.28.28,0,0,0,.11.26,14.24,14.24,0,0,0,3.05,1.7c.53.21,1.07.38,1.61.57a3.55,3.55,0,0,1,2,1.82A19.36,19.36,0,0,1,28.37,20a.22.22,0,0,0,.25.17,4.65,4.65,0,0,1,1.58.17,1,1,0,0,1,.61.49,6.4,6.4,0,0,1,.62,1.8,7.49,7.49,0,0,1,.15.8,1.44,1.44,0,0,1-.66,1.35,7.11,7.11,0,0,1-1.57.82,13.24,13.24,0,0,1-2.48.62c-.48.08-.95.15-1.43.2a5.9,5.9,0,0,1-1.73,0,1.15,1.15,0,0,1-.77-.55,5.67,5.67,0,0,1-.59-1.44,4.25,4.25,0,0,1-.2-1.12c0-.19,0-.38,0-.57a.82.82,0,0,1,.57-.76,1.16,1.16,0,0,0,.42-.37.24.24,0,0,0,0-.3.25.25,0,0,0-.25-.13,1.69,1.69,0,0,0-.5.14,20.48,20.48,0,0,1-2.16.76,12.74,12.74,0,0,1-2.67.45,20.24,20.24,0,0,1-3.21,0,8,8,0,0,1-2.52-.78A8.84,8.84,0,0,0,10,21.13a2.26,2.26,0,0,0-1.59.15,2.31,2.31,0,0,1-1.17.25,7.56,7.56,0,0,0-1.06.08A.88.88,0,0,0,5.6,22l-.2.27a1.29,1.29,0,0,1-1.78.2,1.7,1.7,0,0,0-1-.39c-.45,0-.9.08-1.36.06a1,1,0,0,1-.95-.69,4.07,4.07,0,0,1-.24-2c.05-.46,0-.92,0-1.38a11.09,11.09,0,0,1,.32-2.37,4.14,4.14,0,0,1,.21-.59A.3.3,0,0,1,.87,15H3.24c.17,0,.26,0,.29-.22s.09-.31.13-.46a.16.16,0,0,1,.18-.14H5a.19.19,0,0,1,.2.14c.08.2.17.39.25.59a.28.28,0,0,0,.31.2c.61,0,1.23,0,1.85,0a.59.59,0,0,1,.55.24.38.38,0,0,0,.43.15,6.24,6.24,0,0,1,1.88,0,4.89,4.89,0,0,0,1.08,0,1.61,1.61,0,0,0,1-.44,4.84,4.84,0,0,0,.58-.62.46.46,0,0,0,.09-.3V12.39Z"/></svg>