<svg id="bf6ff01a-98ce-4aed-ab11-4dad1c0e932f" data-name="Layer 2" xmlns="http://www.w3.org/2000/svg" xmlns:xlink="http://www.w3.org/1999/xlink" viewBox="0 0 2179.57 257.15"><defs><style>.ab5a6866-53fe-4f93-bd9d-837072daf8e9{fill:#fff;}.f3d940fc-7618-4c2a-a2dd-7f9adbe25952{fill:#e94057;}.a8d12816-ea71-4616-bc29-89be25912942{fill:url(#fbaf71d4-beb7-4757-a7f2-c17147b1051f);}</style><linearGradient id="fbaf71d4-beb7-4757-a7f2-c17147b1051f" x1="6.84" y1="98.15" x2="902.25" y2="98.15" gradientUnits="userSpaceOnUse"><stop offset="0" stop-color="#8a2387"/><stop offset="0.5" stop-color="#e94057"/><stop offset="1" stop-color="#f27121"/></linearGradient></defs><path d="M904.32,156.63V57.3c0-14.47-4-23.58-9.9-29.16l-.2-.2-.2-.2-.2-.2-.2-.19-.19-.2-.2-.2-.2-.2-.2-.2-.2-.19-.19-.2-.2-.2c-.07-.07-.13-.14-.2-.2l-.2-.2c-.07-.06-.13-.13-.2-.2l-.19-.19-.2-.2c-.07-.07-.13-.14-.2-.2l-.2-.2c-.07-.06-.13-.13-.2-.2l-.19-.19-.2-.2c-.07-.07-.13-.14-.2-.2l-.2-.2c-.07-.06-.13-.13-.2-.2l-.19-.19-.2-.2-.2-.2c-.07-.06-.13-.13-.2-.2s-.13-.13-.2-.2l-.2-.19-.19-.2-.2-.2c-.07-.06-.13-.13-.2-.2s-.13-.13-.2-.2l-.2-.19-.19-.2-.2-.2c-.07-.06-.13-.13-.2-.2l-.2-.2-.2-.19-.19-.2-.2-.2c-.07-.06-.13-.13-.2-.2l-.2-.2-.2-.19-.19-.2-.2-.2c-.07-.06-.13-.13-.2-.2l-.2-.2-.2-.19-.19-.2c-.07-.07-.13-.14-.2-.2s-.13-.13-.2-.2l-.2-.2-.2-.19-.19-.2c-.07-.07-.13-.14-.2-.2s-.13-.13-.2-.2l-.2-.2-.2-.19-.19-.2c-.07-.07-.13-.14-.2-.2l-.2-.2c-.07-.06-.13-.13-.2-.2l-.2-.19-.19-.2c-.07-.07-.13-.14-.2-.2l-.2-.2c-.07-.06-.13-.13-.2-.2l-.2-.19-.19-.2c-.07-.07-.13-.14-.2-.2l-.2-.2c-.07-.06-.13-.13-.2-.2l-.2-.19-.19-.2c-.07-.07-.13-.14-.2-.2l-.2-.2c-.07-.06-.13-.13-.2-.2l-.2-.19-.19-.2c-.07-.07-.13-.14-.2-.2l-.2-.2c-.07-.06-.13-.13-.2-.2l-.2-.19-.19-.2-.2-.2-.2-.2c-.07-.06-.13-.13-.2-.2l-.2-.19-.19-.2-.2-.2-.2-.2c-.07-.06-.13-.13-.2-.2l-.2-.19-.19-.2-.2-.2-.2-.2-.2-.2-.2-.19C868,1.86,858.88,0,850.65,0a46.37,46.37,0,0,0-19.58,3.93L823,7.66l2.76,8.45c2.21,6.8,2.49,15.35,2.91,34l.06,16.95a41.88,41.88,0,0,0-15.07-2.57c-17.49,0-31.86,10-40.14,27.3l0-.06-.2-.2-.2-.19-.2-.2-.2-.2-.19-.2-.2-.2-.2-.19-.2-.2c-.06-.07-.13-.13-.2-.2l-.19-.2-.2-.2-.2-.19a1.89,1.89,0,0,0-.2-.2c-.06-.07-.13-.13-.2-.2l-.19-.2-.2-.2-.2-.19a1.89,1.89,0,0,0-.2-.2c-.06-.07-.13-.13-.2-.2l-.19-.2-.2-.2-.2-.19a1.89,1.89,0,0,0-.2-.2c-.06-.07-.13-.13-.2-.2l-.19-.2c-.07-.07-.14-.13-.2-.2l-.2-.19a1.89,1.89,0,0,0-.2-.2c-.06-.07-.13-.13-.2-.2l-.19-.2c-.07-.07-.14-.13-.2-.2l-.2-.19a1.89,1.89,0,0,0-.2-.2c-.06-.07-.13-.13-.2-.2l-.19-.2c-.07-.07-.14-.13-.2-.2l-.2-.19a1.89,1.89,0,0,0-.2-.2l-.2-.2-.19-.2c-.07-.07-.14-.13-.2-.2l-.2-.19a1.89,1.89,0,0,0-.2-.2l-.2-.2-.19-.2c-.07-.07-.14-.13-.2-.2l-.2-.19a1.89,1.89,0,0,0-.2-.2l-.2-.2-.19-.2c-.07-.07-.14-.13-.2-.2l-.2-.19-.2-.2-.2-.2-.19-.2-.2-.2-.2-.19-.2-.2-.2-.2-.19-.2-.2-.2a1.89,1.89,0,0,1-.2-.2l-.2-.19-.2-.2-.19-.2-.2-.2a1.89,1.89,0,0,1-.2-.2l-.2-.19c-.06-.07-.13-.13-.2-.2l-.19-.2-.2-.2Q746.78,64.52,724,64.5c-21.7,0-39,10.11-48.7,28.06h0l-.2-.2c-.07-.07-.13-.14-.2-.2s-.13-.13-.2-.2l-.19-.2-.2-.19c-.07-.07-.13-.14-.2-.2s-.13-.14-.2-.2-.13-.13-.2-.2l-.19-.2-.2-.19c-.07-.07-.13-.14-.2-.2s-.13-.14-.2-.2-.13-.13-.2-.2l-.19-.2-.2-.19c-.07-.07-.13-.14-.2-.2l-.2-.2-.2-.2-.19-.2-.2-.19c-.07-.07-.13-.14-.2-.2l-.2-.2-.2-.2-.19-.2-.2-.19c-.07-.07-.13-.14-.2-.2l-.2-.2-.2-.2-.19-.2-.2-.19c-.07-.07-.13-.14-.2-.2l-.2-.2-.2-.2-.19-.2a1.89,1.89,0,0,1-.2-.2l-.2-.19-.2-.2-.2-.2-.19-.2a1.89,1.89,0,0,1-.2-.2l-.2-.19-.2-.2-.2-.2-.19-.2a1.89,1.89,0,0,1-.2-.2l-.2-.19c-.07-.07-.13-.14-.2-.2l-.2-.2-.19-.2a1.89,1.89,0,0,1-.2-.2l-.2-.19c-.07-.07-.13-.14-.2-.2l-.2-.2-.2-.2-.19-.2-.2-.19c-.07-.07-.13-.14-.2-.2l-.2-.2-.2-.2-.19-.2-.2-.19c-.07-.07-.13-.14-.2-.2l-.2-.2-.2-.2-.19-.2-.2-.19c-.07-.07-.13-.14-.2-.2l-.2-.2-.2-.2-.19-.2-.2-.19c-.07-.07-.13-.14-.2-.2l-.2-.2-.2-.2-.19-.2-.2-.19c-.07-.07-.13-.14-.2-.2l-.2-.2-.2-.2Q647.12,64.54,625,64.5c-18.47,0-33.47,7.24-43.46,20l0,0-.11-.12-.09-.08-.11-.12-.09-.08-.11-.12-.08-.08a1.14,1.14,0,0,1-.11-.11l-.09-.08-.11-.12-.09-.08-.11-.12-.09-.08-.11-.12-.09-.08-.11-.12a.6.6,0,0,1-.08-.08,1.14,1.14,0,0,1-.11-.11l-.09-.08-.11-.12-.09-.08-.11-.12-.09-.08-.11-.12-.09-.08-.11-.12a.3.3,0,0,1-.08-.08,1.14,1.14,0,0,1-.11-.11l-.09-.08-.11-.12-.09-.08-.11-.12-.09-.08-.11-.12-.09-.08-.11-.12-.09-.08-.1-.11-.09-.08-.11-.12-.09-.08-.11-.12-.09-.08-.11-.12-.09-.08-.11-.12-.09-.08-.1-.11-.09-.08-.11-.12-.09-.08-.11-.12-.09-.08-.11-.12-.09-.08-.11-.12L576,78.9l-.1-.11-.09-.08-.11-.12-.09-.08-.11-.12-.09-.08-.11-.12-.09-.08-.11-.12-.09-.08-.11-.11a.3.3,0,0,0-.08-.08l-.11-.12-.09-.08-.11-.12-.09-.08-.11-.12-.09-.08L574.1,77l-.09-.08a1.14,1.14,0,0,0-.11-.11.3.3,0,0,0-.08-.08l-.11-.12-.09-.08-.11-.12-.09-.08-.11-.12-.09-.08-.11-.12-.09-.08a1.14,1.14,0,0,0-.11-.11l-.08-.08-.11-.12-.09-.08-.11-.12-.09-.08-.11-.12-.09-.08-.11-.12-.09-.08a1.14,1.14,0,0,0-.11-.11.6.6,0,0,0-.08-.08l-.11-.12-.09-.08-.11-.12-.09-.08-.11-.12-.09-.08-.11-.12L571,74a.57.57,0,0,0-.11-.11.6.6,0,0,0-.08-.08l-.11-.12-.09-.08-.11-.12-.09-.08-.11-.12-.09-.08-.11-.12-.09-.08a.57.57,0,0,0-.11-.11l-.08-.08-.11-.12-.09-.08-.11-.12-.09-.08-.11-.12-.09-.08-.11-.12-.09-.08a.57.57,0,0,0-.11-.11l-.08-.08-.11-.12-.09-.08-.11-.12-.09-.08-.11-.12-.09-.08-.11-.12-.09-.08-.11-.11-.08-.09a.57.57,0,0,1-.11-.11l-.09-.08-.11-.12-.09-.08-.11-.12-.09-.08-.11-.12-.09-.08-.11-.11-.08-.09-.11-.11-.09-.08-.11-.12a17.23,17.23,0,0,0-12.72-5A17,17,0,0,0,543.37,68h-.07v-.2h-.19v-.2h-.2v-.2h-.2v-.2h-.2V67h-.2v-.19h-.19v-.2H485.87V81.29l-.07-.07c-.07-.07-.14-.13-.2-.2l-.2-.2-.2-.2-.19-.19-.2-.2-.2-.2-.2-.2c-.06-.07-.13-.13-.2-.2l-.19-.19-.2-.2-.2-.2-.2-.2c-.06-.07-.13-.13-.2-.2l-.2-.19-.19-.2c-.07-.07-.14-.13-.2-.2l-.2-.2-.2-.2-.2-.19-.19-.2-.2-.2-.2-.2-.2-.2-.2-.19-.19-.2c-.07-.07-.14-.13-.2-.2l-.2-.2c-.06-.07-.13-.13-.2-.2l-.2-.19-.19-.2c-.07-.07-.14-.13-.2-.2l-.2-.2-.2-.2-.2-.19c-7.85-8.2-18.23-10-25.8-10-8.3,0-24.19,2.28-33.25,18.23a1.59,1.59,0,0,1-.13-.13l-.2-.2-.2-.2-.2-.19a1.89,1.89,0,0,0-.2-.2l-.19-.2c-.07-.07-.14-.13-.2-.2l-.2-.2-.2-.19a1.89,1.89,0,0,0-.2-.2l-.19-.2-.2-.2-.2-.2-.2-.19a1.89,1.89,0,0,0-.2-.2l-.19-.2c-.07-.07-.14-.13-.2-.2l-.2-.2-.2-.19a1.89,1.89,0,0,0-.2-.2l-.19-.2c-.07-.07-.14-.13-.2-.2s-.13-.13-.2-.2l-.2-.19-.2-.2-.19-.2-.2-.2-.2-.2-.2-.19a1.89,1.89,0,0,0-.2-.2l-.19-.2c-.07-.07-.14-.13-.2-.2s-.13-.13-.2-.2l-.2-.19-.2-.2C405.78,68.51,395,64.5,381.5,64.5c-17.41,0-32.2,6.36-42.76,18.38-.68.77-1.32,1.57-2,2.38v-.15l-.2,0v-.16l-.19,0v-.16l-.2,0v-.16l-.2,0v-.16l-.2,0v-.16l-.2,0v-.16l-.19,0v-.16l-.2,0v-.16l-.2,0v-.16l-.2,0v-.16l-.2,0v-.16l-.19,0v-.16l-.2,0v-.16l-.2,0v-.16l-.2,0v-.16l-.2,0V82l-.19,0v-.16l-.2,0v-.16l-.2,0v-.16l-.2,0v-.16l-.2,0V81l-.19,0v-.16l-.2,0v-.16l-.2,0v-.16l-.2,0v-.16l-.2,0V80l-.19,0v-.16l-.2,0v-.16l-.2,0v-.16l-.2,0v-.16l-.2,0V79l-.19,0v-.16l-.2,0v-.16l-.2,0v-.16l-.2,0v-.16l-.2,0V78l-.19,0v-.16l-.2,0v-.16l-.2,0v-.16l-.2,0v-.16l-.2,0V77l-.19,0V76.8l-.2,0V76.6l-.2,0V76.4l-.2,0V76.2l-.2,0V76l-.19,0v-.16l-.2,0v-.16l-.2,0v-.16l-.2,0v-.16l-.2,0V75l-.19,0v-.16l-.2,0v-.16l-.2,0v-.16l-.2,0v-.16l-.2,0V74l-.19,0v-.16l-.2,0v-.16l-.2,0v-.16l-.2,0v-.16l-.2,0V73l-.19,0v-.16l-.2,0v-.16l-.2,0v-.16l-.2,0v-.16l-.2,0v-.16l-.2,0v-.16l-.19,0v-.16l-.2,0v-.16l-.2,0v-.16l-.2,0v-.16l-.2,0v-.16l-.19,0v-.16l-.2,0v-.16l-.2,0v-.16l-.2,0v-.15l-.2,0v-.16l-.19,0v-.16l-.2,0v-.16l-.2,0v-.16l-.2,0v-.15l-.2,0v-.16l-.19,0v-.16l-.2,0v-.16l-.2,0v-.16l-.2,0v-.15l-.2,0v-.16l-.19,0v-.16l-.2,0v-.16l-.2,0v-.16l-.2,0v-.16l-.2,0V66.9l-8.09-1.57a61.49,61.49,0,0,0-11.23-.83h-2.36c-17.51,0-30.18,4.71-38.74,14.4a42.17,42.17,0,0,0-6.94,11l-.14-.13-.2-.2-.2-.2-.19-.2a1.89,1.89,0,0,1-.2-.2l-.2-.19-.2-.2c-.06-.07-.13-.13-.2-.2s-.13-.13-.2-.2l-.19-.2-.2-.19-.2-.2-.2-.2c-.06-.07-.13-.13-.2-.2l-.19-.2-.2-.19c-.07-.07-.13-.14-.2-.2s-.13-.13-.2-.2l-.2-.2-.19-.2-.2-.19c-.07-.07-.13-.14-.2-.2l-.2-.2c-.06-.07-.13-.13-.2-.2l-.19-.2-.2-.19-.2-.2-.2-.2c-.06-.07-.13-.13-.2-.2l-.19-.2-.2-.19c-.07-.07-.13-.14-.2-.2l-.2-.2-.2-.2-.19-.2-.2-.19c-.07-.07-.13-.14-.2-.2l-.2-.2c-.06-.07-.13-.13-.2-.2l-.19-.2-.2-.19-.2-.2-.2-.2c-.06-.07-.13-.13-.2-.2l-.19-.2-.2-.19c-.07-.07-.13-.14-.2-.2l-.2-.2-.2-.2-.19-.2-.2-.19-.2-.2-.2-.2c-.06-.07-.13-.13-.2-.2l-.19-.2-.2-.19-.2-.2-.2-.2-.2-.2-.19-.2-.2-.2-.2-.19-.2-.2c-.06-.07-.13-.13-.2-.2-8.31-8.42-19.56-12.83-33-12.83-15.47,0-28.8,4.93-39,14.32a43,43,0,0,0-10.78-18.26l-.2-.19c-.07-.07-.13-.14-.2-.2l-.2-.2-.19-.2c-.07-.07-.14-.13-.2-.2l-.2-.19-.2-.2c-.06-.07-.13-.13-.2-.2l-.19-.2-.2-.2-.2-.2-.2-.19-.2-.2-.19-.2-.2-.2-.2-.2-.2-.19-.2-.2-.19-.2c-.07-.07-.14-.13-.2-.2l-.2-.2-.2-.19a1.89,1.89,0,0,0-.2-.2l-.19-.2-.2-.2-.2-.2-.2-.19-.2-.2-.19-.2c-.07-.07-.14-.13-.2-.2l-.2-.2-.2-.19-.2-.2-.19-.2c-.07-.07-.14-.13-.2-.2l-.2-.2-.2-.19a1.89,1.89,0,0,0-.2-.2l-.19-.2-.2-.2a1.89,1.89,0,0,1-.2-.2l-.2-.19-.2-.2c-.06-.07-.13-.13-.2-.2l-.19-.2-.2-.2-.2-.19-.2-.2c-.06-.07-.13-.13-.2-.2l-.19-.2-.2-.2-.2-.19a1.89,1.89,0,0,0-.2-.2l-.2-.2-.19-.2a1.89,1.89,0,0,1-.2-.2l-.2-.19-.2-.2c-.06-.07-.13-.13-.2-.2l-.19-.2-.2-.2-.2-.19-.2-.2c-.06-.07-.13-.13-.2-.2l-.19-.2-.2-.2-.2-.19a1.89,1.89,0,0,0-.2-.2l-.2-.2-.19-.2a1.89,1.89,0,0,1-.2-.2l-.2-.19a1.89,1.89,0,0,0-.2-.2c-.06-.07-.13-.13-.2-.2l-.19-.2-.2-.2-.2-.19-.2-.2c-.06-.07-.13-.13-.2-.2l-.19-.2-.2-.2-.2-.19-.2-.2-.2-.2-.19-.2c-.07-.07-.14-.13-.2-.2l-.2-.19c-.07-.07-.13-.14-.2-.2s-.13-.13-.2-.2l-.19-.2c-.07-.07-.14-.13-.2-.2l-.2-.19-.2-.2c-.06-.07-.13-.13-.2-.2l-.19-.2-.2-.2-.2-.19-.2-.2-.2-.2-.19-.2A49.72,49.72,0,0,0,126,33C113,25.25,94.58,21.5,69.62,21.5c-19.25,0-35.81,4.14-47.9,12C7.51,42.7,0,56.44,0,73.21c0,11.67,3.47,21,9.68,27.21l.19.2.2.2.2.19c.07.07.13.14.2.2s.13.13.2.2l.19.2c.07.07.14.13.2.2l.2.19c.07.07.13.14.2.2l.2.2.19.2.2.2.2.19.2.2c.06.07.13.13.2.2l.19.2c.07.07.14.13.2.2l.2.19c.07.07.13.14.2.2l.2.2.19.2c.07.07.14.13.2.2a1.89,1.89,0,0,1,.2.2l.2.19a1.89,1.89,0,0,0,.2.2l.2.2.19.2a1.89,1.89,0,0,1,.2.2l.2.19a1.89,1.89,0,0,0,.2.2c.06.07.13.13.2.2l.19.2a1.89,1.89,0,0,1,.2.2l.2.19a1.89,1.89,0,0,0,.2.2c.06.07.13.13.2.2l.19.2a1.89,1.89,0,0,1,.2.2l.2.19.2.2.2.2.19.2a1.89,1.89,0,0,1,.2.2l.2.19a1.89,1.89,0,0,0,.2.2c.06.07.13.13.2.2l.19.2a1.89,1.89,0,0,1,.2.2l.2.19a1.89,1.89,0,0,0,.2.2c.06.07.13.13.2.2l.19.2a1.89,1.89,0,0,1,.2.2l.2.19c.07.07.13.14.2.2l.2.2.19.2a1.89,1.89,0,0,1,.2.2l.2.19c.07.07.13.14.2.2s.13.13.2.2l.19.2a1.89,1.89,0,0,1,.2.2l.2.19c.07.07.13.14.2.2l.2.2.19.2a1.89,1.89,0,0,1,.2.2l.2.19c.07.07.13.14.2.2l.2.2.19.2a1.89,1.89,0,0,1,.2.2l.2.19c.07.07.13.14.2.2s.13.13.2.2l.19.2a1.89,1.89,0,0,1,.2.2l.2.19c.07.07.13.14.2.2l.2.2.19.2a1.89,1.89,0,0,1,.2.2l.2.19.2.2.2.2.19.2.2.2.2.19c.07.07.13.14.2.2s.13.13.2.2l.19.2c.07.07.14.13.2.2l.2.19.2.2.2.2.19.2.2.2.2.19c.07.07.13.14.2.2a27.47,27.47,0,0,0,2.18,2v19.46H13v19.46c0,11.71,3.48,20.9,9.84,27l.2.2.19.19.2.2.2.2.2.2c.07.06.13.13.2.2l.19.19c.07.07.13.14.2.2l.2.2.2.2.2.2.19.19.2.2.2.2c.07.06.13.13.2.2l.2.2.19.19.2.2.2.2.2.2.2.2.19.19.2.2.2.2.2.2.2.2.19.19.2.2.2.2.2.2.2.2.19.19.2.2.2.2.2.2.2.2.2.19.19.2.2.2.2.2.2.2.2.19.19.2.2.2.2.2.2.2.2.19.19.2.2.2.2.2.2.2.2.19.19.2.2.2.2.2.2.2.2.19.19.2c.07.07.13.14.2.2l.2.2.2.2.2.19.19.2.2.2.2.2.2.2.2.19.19.2.2.2.2.2.2.2.2.2.19.19c.07.07.13.14.2.2l.2.2.2.2.2.2.19.19.2.2.2.2.2.2.2.2.19.19.2.2c.07.07.13.14.2.2l.2.2.2.2.19.19c.07.07.13.14.2.2l.2.2.2.2c.07.06.13.13.2.2l.19.19.2.2.2.2.2.2.2.2.19.19.2.2c.07.07.13.14.2.2,5.61,5.45,13.52,8.41,23.29,8.41,21.07,0,35.38-9.47,41.22-26.58l.16.16.2.2.2.2.19.19.2.2.2.2.2.2c.07.06.13.13.2.2l.2.19.19.2c.07.07.13.14.2.2l.2.2.2.2.2.19.19.2.2.2.2.2.2.2.2.19.19.2c.07.07.13.14.2.2l.2.2.2.2.2.19.19.2c.07.07.13.14.2.2l.2.2.2.2.2.2.19.19.2.2.2.2.2.2.2.2.19.19.2.2.2.2.2.2.2.2.19.19.2.2.2.2.2.2.2.2.19.19.2.2.2.2.2.2.2.2.19.19.2.2.2.2.2.2.2.2.19.19.2.2.2.2.2.2.2.2.19.19.2.2.2.2.2.2.2.2.19.19.2.2.2.2.2.2.2.2.19.19.2.2.2.2.2.2.2.2.19.19.2.2.2.2.2.2.2.2.19.19.2.2.2.2.2.2c6.54,6.55,15.51,10.18,28.64,10.18,16.36,0,27.62-4.65,34-14.13,10,9.22,23.44,14.13,39.41,14.13a44,44,0,0,0,36.52-18.55c.85,0,1.66-.13,2.46-.23v.09l.2.09v.1l.2.1v.1l.19.1v.1l.2.1v.1l.2.09v.11l.2.09v.1l.2.1v.1l.19.1v.1l.2.1v.1l.2.09v.11l.2.09v.1l.2.1v.1l.19.1v.1l.2.1v.1l.2.09v.11l.2.09v.1l.2.1v.1l.19.1v.1l.2.1v.1l.2.09v.11l.2.09v.1l.2.1v.1l.19.1v.1l.2.1v.1l.2.09v.11l.2.09v.1l.2.1v.1l.19.1v.1l.2.1v.1l.2.09v.11l.2.09v.1l.2.1v.1l.19.1v.1l.2.1v.1l.2.09v.11l.2.09v.1l.2.1v.1l.19.1v.1l.2.1v.1l.2.09v.11l.2.09v.1l.2.1v.1l.19.1v.1l.2.1v.1l.2.09v.11l.2.09v.1l.2.1v.1l.2.1v.1l.19.1v.1l.2.09v.11l.2.09v.1l.2.1v.1l.2.1v.1l.19.1v.1l.2.09v.11l.2.09v.1l5.64,2.74c6.11,3,16.36,4.87,26.11,4.87,18.34,0,39.2-2.53,51.1-18.67l.09.08.19.19.2.2.2.2.2.2.2.2.19.19.2.2.2.2.2.2.2.2c10.68,10.84,25.76,16.61,44.18,16.61,18.26,0,32.21-6,41.45-17.88a48.38,48.38,0,0,0,4.5-6.95h0l.06.07.14.13.06.07.14.13.06.07.13.13.07.06.13.13.06.07.14.13.06.07.14.13.06.07.14.13.06.07.13.13.07.06.13.13.06.07.14.13.06.07.14.13.06.07.14.13.06.07.13.13.07.06.13.13.06.07.14.13.06.07.14.13.06.07.14.13.06.07.13.13.07.06a1.59,1.59,0,0,0,.13.13l.06.07.14.13.06.07.14.13.06.07.14.13.06.07a1.59,1.59,0,0,1,.13.13l.07.06a1.59,1.59,0,0,0,.13.13l.06.07.14.13.06.07.14.13.06.07.14.13.06.07a1.59,1.59,0,0,1,.13.13l.07.06.13.13.06.07.14.13.06.07.14.13.06.07.14.13.06.07a1.59,1.59,0,0,1,.13.13l.07.06.13.13.06.07.14.13.06.07.14.13.06.07.14.13.06.07.13.13.07.06.13.13.06.07.14.13.06.07.14.13.06.07.14.13.06.07.13.13.07.06.13.14.06.06.14.13.06.07.14.13.06.07.14.13.06.07.13.13.07.06.13.14.06.06.14.13.06.07.14.13.06.07.14.13.06.07.13.13.07.06.13.14.06.06.14.13.06.07.14.13.06.07.14.13.06.07a1.59,1.59,0,0,1,.13.13.46.46,0,0,1,.07.07l.13.13.06.06.14.13.06.07.14.13.06.07.14.13.06.07a1.59,1.59,0,0,1,.13.13.46.46,0,0,1,.07.07,1.59,1.59,0,0,1,.13.13l.06.06.14.13.06.07.14.13.06.07.14.13.06.07.13.13a.46.46,0,0,1,.07.07,1.59,1.59,0,0,1,.13.13l.06.06.14.13.06.07.14.13.06.07.14.13.06.07.13.13a.23.23,0,0,1,.07.07l.13.13.06.06.14.13.06.07c6.53,6.57,15.32,9.9,26.11,9.9s19.65-3.72,26.24-10.72c6.17,6.18,15.57,10.72,29.83,10.72,15.63,0,27.4-6.41,35.1-19.07,1.13.1,2.3.15,3.52.15a23.5,23.5,0,0,0,12.74-3.64l.06,0,.2.2c.06.07.13.13.2.2l.19.2.2.19c.07.07.13.14.2.2l.2.2.2.2.2.2.19.19c.07.07.13.14.2.2l.2.2.2.2c.06.07.13.13.2.2l.19.2.2.19.2.2.2.2c.06.07.13.13.2.2l.19.2.2.19.2.2.2.2c.06.07.13.13.2.2l.19.2.2.19.2.2.2.2c.06.07.13.13.2.2l.19.2.2.19c.07.07.13.14.2.2l.2.2c.06.07.13.13.2.2l.19.2.2.19c10,10,23.43,15.58,38.86,15.58,16.53,0,29.29-5.51,37.93-16.38a50.6,50.6,0,0,0,7.64-13.75.12.12,0,0,0,0,.05,1.89,1.89,0,0,0,.2.2l.19.2.2.2.2.2.2.19a1.89,1.89,0,0,0,.2.2l.19.2.2.2.2.2.2.19a1.89,1.89,0,0,0,.2.2l.19.2.2.2.2.2.2.19a1.89,1.89,0,0,0,.2.2l.19.2.2.2.2.2.2.19a1.89,1.89,0,0,0,.2.2l.19.2.2.2.2.2.2.19a1.89,1.89,0,0,0,.2.2l.19.2.2.2.2.2.2.19a1.89,1.89,0,0,0,.2.2l.19.2c.07.07.14.13.2.2l.2.2.2.19a1.89,1.89,0,0,0,.2.2l.19.2c.07.07.14.13.2.2l.2.2.2.19a1.89,1.89,0,0,0,.2.2l.19.2c.07.07.14.13.2.2l.2.2.2.2.2.19.19.2c.07.07.14.13.2.2l.2.2.2.2.2.19.19.2c.07.07.14.13.2.2l.2.2.2.2.2.19.19.2c.07.07.14.13.2.2l.2.2.2.2.2.19.19.2.2.2.2.2.2.2.2.19.19.2.2.2c.07.07.14.13.2.2s.13.13.2.2l.2.19c9.87,10.22,23.37,16,39.3,16,16.53,0,29.29-5.51,37.93-16.38a48.81,48.81,0,0,0,6.24-10.37l.11.1.19.2.2.2.2.2c.07.06.13.13.2.2l.2.19.19.2.2.2.2.2c.07.06.13.13.2.2l.2.19.19.2.2.2.2.2.2.2.2.19.19.2.2.2.2.2.2.2.2.2.19.19.2.2.2.2.2.2.2.2.19.19.2.2.2.2.2.2.2.2.19.19.2.2.2.2.2.2.2.2.19.19.2.2.2.2.2.2.2.2.19.19.2.2.2.2.2.2c.07.06.13.13.2.2l.19.19.2.2.2.2.2.2.2.2.2.19.19.2.2.2.2.2.2.2.2.19.19.2.2.2.2.2.2.2.2.19.19.2.2.2.2.2.2.2.2.19.19.2.2.2.2.2.2.2.2.19.19.2c.07.07.13.14.2.2l.2.2.2.2.2.19.19.2.2.2A37.73,37.73,0,0,0,831,216.3c11.3,0,20.45-3.19,27.21-9.36l.11.11.2.19c.07.07.13.14.2.2l.19.2c.07.06.13.13.2.2l.2.2.2.19c.07.07.13.14.2.2l.19.2c4.55,4.44,11.26,7.67,21.26,7.67,11.68,0,20.9-5.56,24.66-14.86l1.24-3.09-.85-3.21C905.27,191.6,904.32,177.23,904.32,156.63Zm-259.21-.09.2.2c.06.06.12.13.18.18-.27.6-.54,1.17-.83,1.71-.06-.87-.11-1.77-.15-2.68h0l.19.2.2.2Zm99,0,.19.2c.06.06.12.13.18.18-.26.59-.53,1.17-.82,1.71-.06-.87-.11-1.77-.15-2.68h0l.2.2.2.2Z"/><path d="M2179.57,166v13.87c0,23.5-12.59,36.45-35.45,36.45-11.47,0-20.56-3.18-27.17-9.49-6.65,6.2-15.82,9.49-27,9.49-12.45,0-21.77-3.25-28.29-9.88l-.19-.19-.2-.2-.2-.2-.2-.2-.2-.2-.19-.19-.2-.2-.2-.2-.2-.2-.2-.2-.19-.19-.2-.2-.2-.2-.2-.2-.2-.2-.19-.19-.2-.2c-.07-.07-.14-.13-.2-.2l-.2-.2-.2-.2-.19-.19-.2-.2-.2-.2-.2-.2-.2-.2-.19-.19-.2-.2c-.07-.07-.14-.13-.2-.2l-.2-.2-.2-.2-.2-.19-.19-.2c-.07-.07-.14-.13-.2-.2l-.2-.2-.2-.2-.2-.19-.19-.2c-.07-.07-.14-.13-.2-.2l-.2-.2c-.07-.06-.13-.13-.2-.2l-.2-.19-.19-.2-.2-.2-.2-.2-.2-.2-.2-.19-.19-.2c-.07-.07-.14-.13-.2-.2l-.2-.2c-.07-.06-.13-.13-.2-.2l-.2-.19-.19-.2-.09-.08v18.1h-56.25V214h-.2v-.2h-.19v-.2h-.2v-.2h-.2v-.19h-.2V213h-.2v-.2h-.19v-.2h-.2v-.2h-.2v-.19h-.2V212h-.2v-.2h-.19v-.2h-.2v-.2h-.2v-.19h-.2V211h-.2v-.2h-.19v-.2h-.2v-.2h-.2v-.19h-.2V210h-.2v-.2h-.19v-.2h-.2v-.2h-.2v-.19h-.2V209h-.2v-.2h-.19v-.2h-.2v-.2h-.2v-.19h-.2V208h-.2v-.2h-.19v-.2h-.2v-.2h-.2v-.19h-.2V207h-.2v-.2h-.19v-.2h-.2v-.2h-.2v-.19h-.2V206h-.2v-.2h-.2v-.2h-.19v-.2h-.2v-.19h-.2V205h-.2v-.2h-.2v-.2h-.19v-.2h-.2v-.19h-.2v-.2h-.2v-.2h-.2v-.2h-.19v-.2h-.2v-.19h-.2v-.2h-.2v-.2h-.2v-.2h-.19c-9.11,9.05-21.76,13.64-37.7,13.64-18,0-32.87-5.58-43.54-16-6.43,10.29-16.87,16-30.14,16-9.86,0-20.71-2.45-28.87-10.86l-.19-.2c-.07-.07-.14-.13-.2-.2l-.2-.19-.2-.2c-.06-.07-.13-.13-.2-.2l-.19-.2c-.07-.07-.14-.13-.2-.2l-.2-.19-.2-.2c-.06-.07-.13-.13-.2-.2l-.19-.2c-.07-.07-.14-.13-.2-.2l-.2-.19-.2-.2c-.06-.07-.13-.13-.2-.2l-.19-.2c-.07-.07-.14-.13-.2-.2l-.2-.19c-.07-.07-.13-.14-.2-.2s-.13-.13-.2-.2l-.19-.2c-.07-.07-.14-.13-.2-.2l-.2-.19c-.07-.07-.13-.14-.2-.2s-.13-.13-.2-.2l-.19-.2c-.07-.07-.14-.13-.2-.2a1.89,1.89,0,0,1-.2-.2l-.2-.19-.2-.2-.19-.2c-.07-.07-.14-.13-.2-.2a1.89,1.89,0,0,1-.2-.2l-.2-.19c-.06-.07-.13-.13-.2-.2l-.19-.2c-.07-.07-.14-.13-.2-.2a1.89,1.89,0,0,1-.2-.2l-.2-.19-.2-.2-.19-.2c-.07-.07-.14-.13-.2-.2a1.89,1.89,0,0,1-.2-.2l-.2-.19-.2-.2-.15-.15v17.77h-110.4V214h-.2v-.2h-.19v-.2h-.2v-.2h-.2v-.19h-.2V213h-.2v-.2h-.19v-.2h-.2v-.2h-.2v-.19h-.2V212h-.2v-.2h-.19v-.2h-.2v-.2h-.2v-.19h-.2V211h-.2v-.2h-.19v-.2h-.2v-.2h-.2v-.19h-.2V210h-.2v-.2h-.2v-.2h-.19v-.2h-.2v-.19h-.2V209h-.2v-.2h-.2v-.2h-.19v-.2h-.2v-.19h-.2V208h-.2v-.2h-.2v-.2h-.19v-.2h-.2v-.19h-.2V207h-.2v-.2h-.2v-.2h-.19v-.2h-.2v-.19h-.2V206h-.2v-.2h-.2v-.2h-.18c-8.83,7.08-21.25,10.67-37.28,10.67-9.31,0-16.93-.71-23.43-2.27v2.8c0,12.18-1.9,20.89-6,27.39-3.69,5.9-11.15,12.93-25.79,12.93-10.84,0-19-2.55-23.9-7.41l-.2-.2-.2-.2-.19-.2a1.89,1.89,0,0,1-.2-.2l-.2-.19c-.07-.07-.13-.14-.2-.2l-.2-.2-.19-.2a1.89,1.89,0,0,1-.2-.2l-.2-.19c-.07-.07-.13-.14-.2-.2l-.2-.2-.19-.2a1.89,1.89,0,0,1-.2-.2l-.2-.19c-.07-.07-.13-.14-.2-.2l-.2-.2-.19-.2a1.89,1.89,0,0,1-.2-.2l-.2-.19c-.07-.07-.13-.14-.2-.2l-.2-.2-.19-.2a1.89,1.89,0,0,1-.2-.2l-.2-.19c-.07-.07-.13-.14-.2-.2l-.2-.2-.19-.2a1.89,1.89,0,0,1-.2-.2l-.2-.19c-.07-.07-.13-.14-.2-.2l-.2-.2-.19-.2a1.89,1.89,0,0,1-.2-.2l-.2-.19c-.07-.07-.13-.14-.2-.2l-.2-.2-.19-.2a1.89,1.89,0,0,1-.2-.2l-.2-.19-.2-.2-.2-.2-.19-.2a1.89,1.89,0,0,1-.2-.2l-.2-.19-.2-.2-.2-.2-.19-.2a1.89,1.89,0,0,1-.2-.2l-.2-.19-.2-.2-.2-.2-.19-.2a1.89,1.89,0,0,1-.2-.2l-.2-.19-.2-.2-.2-.2-.19-.2-.2-.2-.2-.19-.2-.2-.2-.2-.19-.2-.2-.2-.2-.19-.2-.2-.2-.2-.19-.2-.2-.2-.2-.19-.2-.2-.2-.2-.19-.2-.2-.2-.2-.19-.2-.2-.2-.2c-.06-.07-.13-.13-.2-.2l-.19-.2-.2-.19-.2-.2-.2-.2c-.06-.07-.13-.13-.2-.2l-.19-.2-.2-.2-.2-.19-.2-.2c-.06-.07-.13-.13-.2-.2l-.19-.2c-.07-.06-.13-.13-.2-.2l-.2-.19-.2-.2c-.06-.07-.13-.13-.2-.2l-.19-.2c-.07-.06-.13-.13-.2-.2l-.2-.19-.2-.2c-.06-.07-.13-.13-.2-.2l-.19-.2a1.89,1.89,0,0,1-.2-.2,17,17,0,0,1-3-3.72l-3.53-6,4.3-5.32c1.3-2.35,1.38-12.71,1.39-17.21l-.65.05a44,44,0,0,1-36.52,18.55c-17.19,0-31.4-5.64-41.56-16.21-7.42,10.39-19.44,16.21-34.63,16.21-13.4,0-23.64-3.79-30.87-11.49-.07-.07-.14-.13-.2-.2l-.2-.19c-.06-.07-.13-.13-.2-.2l-.19-.2c-.07-.07-.14-.13-.2-.2s-.14-.13-.2-.2l-.2-.19c-.06-.07-.13-.13-.2-.2l-.19-.2c-.07-.07-.14-.13-.2-.2s-.14-.13-.2-.2l-.2-.19c-.06-.07-.13-.13-.2-.2l-.19-.2c-.07-.07-.14-.13-.2-.2s-.14-.13-.2-.2l0,0c-9.12,9.67-22.19,14.7-38.7,14.7-18.5,0-33.71-6-44.42-16.94l-.2-.2-.2-.2-.19-.19c-.07-.07-.14-.13-.2-.2l-.2-.2-.2-.2-.2-.2-.19-.19c-.07-.07-.14-.13-.2-.2l-.2-.2-.2-.2-.2-.2-.19-.19c-.07-.07-.14-.13-.2-.2l-.2-.2-.2-.2-.2-.2-.19-.19-.2-.2-.2-.2-.2-.2-.2-.2-.19-.19-.2-.2-.2-.2-.2-.2-.2-.2-.19-.19-.2-.2c-.07-.07-.14-.13-.2-.2l-.2-.2-.2-.2-.19-.19-.2-.2-.2-.2-.2-.2-.2-.2-.19-.19-.2-.2-.2-.2-.2-.2-.2-.2-.19-.19-.2-.2c-.07-.07-.14-.13-.2-.2l-.2-.2-.2-.2-.19-.19-.2-.2c-.07-.07-.14-.13-.2-.2l-.2-.2-.2-.2-.19-.19-.2-.2c-.07-.07-.14-.13-.2-.2l-.2-.2-.2-.2-.19-.19-.15-.14a27.89,27.89,0,0,1-7.82,1.25c-8,18.13-22.05,27.31-41.92,27.31-10.33,0-24.6-2.36-35.11-13.28l-.2-.2-.2-.2-.2-.19c-.06-.07-.13-.13-.2-.2l-.19-.2-.2-.2-.2-.2-.2-.19c-.06-.07-.13-.13-.2-.2l-.19-.2-.2-.2-.2-.2-.2-.19c-.06-.07-.13-.13-.2-.2l-.19-.2c-.07-.07-.14-.13-.2-.2l-.2-.2-.2-.19a1.89,1.89,0,0,0-.2-.2l-.19-.2c-.07-.07-.14-.13-.2-.2l-.2-.2-.2-.19a1.89,1.89,0,0,0-.2-.2l-.19-.2c-.07-.07-.14-.13-.2-.2l-.2-.2-.2-.2-.2-.19-.19-.2c-.07-.07-.14-.13-.2-.2l-.2-.2-.2-.2-.2-.19-.19-.2c-.07-.07-.14-.13-.2-.2l-.2-.2-.2-.2-.2-.19-.19-.2c-.07-.07-.14-.13-.2-.2s-.14-.13-.2-.2l-.2-.2-.2-.19-.19-.2c-.07-.07-.14-.13-.2-.2s-.14-.13-.2-.2l-.2-.2-.2-.19-.19-.2c-.07-.07-.14-.13-.2-.2s-.14-.13-.2-.2l-.2-.2-.2-.19-.19-.2c-.07-.07-.14-.13-.2-.2s-.14-.13-.2-.2l-.2-.2-.2-.19-.19-.2c-.07-.07-.14-.13-.2-.2l-.2-.2-.2-.2-.2-.19-.19-.2c-.07-.07-.14-.13-.2-.2l-.2-.2-.2-.2-.2-.19-.19-.2c-.07-.07-.14-.13-.2-.2l-.2-.2-.2-.2-.2-.19-.19-.2c-.07-.07-.14-.13-.2-.2l-.2-.2-.2-.2-.1-.09a50.26,50.26,0,0,1-6.42,10.94c-9.24,11.86-23.19,17.88-41.45,17.88-18.69,0-33.91-6.1-44.56-17.12-.07-.07-.14-.13-.2-.2l-.2-.2c-.06-.07-.13-.13-.2-.2l-.2-.19-.19-.2c-.07-.07-.14-.13-.2-.2l-.2-.2-.2-.2-.2-.19-.19-.2c-.07-.07-.14-.13-.2-.2l-.2-.2-.2-.2-.2-.2-.19-.19c-.07-.07-.14-.13-.2-.2s-.14-.13-.2-.2l-.2-.2-.2-.2-.19-.19c-.07-.07-.14-.13-.2-.2s-.14-.13-.2-.2l-.2-.2-.2-.2-.19-.19c-.07-.07-.14-.13-.2-.2s-.14-.13-.2-.2l-.2-.2-.2-.2-.19-.19c-.07-.07-.14-.13-.2-.2s-.14-.13-.2-.2l-.2-.2-.2-.2-.19-.19c-.07-.07-.14-.13-.2-.2s-.14-.13-.2-.2l-.2-.2-.2-.2-.19-.19c-.07-.07-.14-.13-.2-.2s-.14-.13-.2-.2l-.2-.2-.2-.2-.19-.19c-.07-.07-.14-.13-.2-.2s-.14-.13-.2-.2l-.2-.2-.2-.2-.19-.19c-.07-.07-.14-.13-.2-.2l-.2-.2-.2-.2-.2-.2-.19-.19c-.07-.07-.14-.13-.2-.2l-.2-.2-.2-.2-.2-.2-.19-.19c-.07-.07-.14-.13-.2-.2l-.2-.2-.2-.2-.2-.2-.19-.19c-.07-.07-.14-.13-.2-.2l-.2-.2-.2-.2-.2-.2-.2-.19-.19-.2-.2-.2-.2-.2-.2-.2-.2-.19-.19-.2-.2-.2-.2-.2-.2-.2-.2-.19-.19-.2-.2-.2-.2-.2-.2-.2-.2-.19-.19-.2c-.07-.07-.14-.13-.2-.2l-.2-.2,0-.05a82.42,82.42,0,0,1-6.29,10.16c-11.3,15.53-26.3,24.44-41.15,24.44-11.75,0-20.43-2.4-29.35-8.48-7.26,5.63-16.55,8.48-27.76,8.48-9.86,0-18-3.16-23.75-8.89-.07-.07-.13-.14-.2-.2l-.2-.2-.2-.2-.19-.2-.2-.2-.2-.19-.2-.2-.2-.2-.19-.2-.2-.2-.2-.19-.2-.2-.2-.2-.19-.2a1.89,1.89,0,0,1-.2-.2l-.2-.19-.2-.2-.2-.2-.19-.2a1.89,1.89,0,0,1-.2-.2l-.2-.19-.2-.2-.2-.2-.19-.2a1.89,1.89,0,0,1-.2-.2l-.2-.19-.2-.2-.2-.2-.19-.2a1.89,1.89,0,0,1-.2-.2l-.2-.19c-.07-.07-.13-.14-.2-.2s-.13-.13-.2-.2l-.19-.2a1.89,1.89,0,0,1-.2-.2l-.2-.19c-.07-.07-.13-.14-.2-.2s-.13-.13-.2-.2l-.19-.2a1.89,1.89,0,0,1-.2-.2l-.2-.19c-.07-.07-.13-.14-.2-.2s-.13-.13-.2-.2l-.19-.2a1.89,1.89,0,0,1-.2-.2l-.2-.19c-.07-.07-.13-.14-.2-.2s-.13-.13-.2-.2l-.19-.2a1.89,1.89,0,0,1-.2-.2l-.2-.19c-.07-.07-.13-.14-.2-.2l-.2-.2-.19-.2a1.89,1.89,0,0,1-.2-.2l-.2-.19c-.07-.07-.13-.14-.2-.2l-.2-.2-.19-.2a1.89,1.89,0,0,1-.2-.2l-.2-.19c-.07-.07-.13-.14-.2-.2l-.2-.2-.19-.2a1.89,1.89,0,0,1-.2-.2l-.2-.19-.2-.2-.2-.2-.19-.2a1.89,1.89,0,0,1-.2-.2l-.2-.19-.2-.2-.2-.2-.19-.2a1.89,1.89,0,0,1-.2-.2l-.2-.19-.2-.2-.2-.2-.19-.2a1.89,1.89,0,0,1-.2-.2l-.2-.19-.2-.2-.2-.2-.19-.2a1.89,1.89,0,0,1-.2-.2l-.2-.19-.2-.2c-.07-.07-.13-.14-.2-.2l-.19-.2a1.89,1.89,0,0,1-.2-.2l-.2-.19c-.07-.07-.13-.14-.2-.2s-.13-.14-.2-.2l-.19-.2a1.89,1.89,0,0,1-.2-.2l-.2-.19c-.07-.07-.13-.14-.2-.2s-.13-.14-.2-.2-.13-.13-.2-.2l-.19-.2c-6.59-6.39-10.27-16.06-10.27-28.18,0-19.81,9.68-30.11,20.56-32.47V122.3c-.65-.56-1.29-1.14-1.89-1.76l-.2-.2-.19-.2-.2-.19-.2-.2-.2-.2-.2-.2-.19-.2-.2-.19-.2-.2-.2-.2-.2-.2-.19-.2-.2-.19-.2-.2-.2-.2-.2-.2-.19-.2-.2-.19-.2-.2-.2-.2-.2-.2-.19-.2-.2-.19-.2-.2-.2-.2-.2-.2-.19-.2-.2-.19-.2-.2-.2-.2c-.06-.07-.13-.13-.2-.2l-.19-.2-.2-.19-.2-.2-.2-.2c-.06-.07-.13-.13-.2-.2l-.19-.2-.2-.19c-.07-.07-.14-.13-.2-.2l-.2-.2c-.06-.07-.13-.13-.2-.2l-.19-.2-.2-.19c-.07-.07-.14-.13-.2-.2l-.2-.2c-.06-.07-.13-.13-.2-.2l-.19-.2-.2-.19-.2-.2-.2-.2c-.06-.07-.13-.13-.2-.2l-.19-.2-.2-.19-.2-.2-.2-.2c-.06-.07-.13-.13-.2-.2l-.19-.2-.2-.19-.2-.2-.2-.2c-.06-.07-.13-.13-.2-.2l-.19-.2-.2-.19-.2-.2-.2-.2-.2-.2-.19-.2-.2-.19-.2-.2-.2-.2-.2-.2-.19-.2-.2-.19-.2-.2-.2-.2-.2-.2-.2-.2-.19-.19-.2-.2-.2-.2-.2-.2-.2-.2-.19-.19-.2-.2-.2-.2-.2-.2-.2-.2-.19-.19-.2-.2-.2-.2-.2-.2c-.06-.07-.13-.13-.2-.2l-.19-.19-.2-.2-.2-.2-.2-.2c-.06-.07-.13-.13-.2-.2l-.19-.19-.2-.2-.2-.2c-6.07-6.11-9.53-15.31-9.53-26.67,0-31.94,28.26-52.57,72-52.57,27.86,0,49.88,7.94,65.43,23.59l.1.1.1.1.1.1a.94.94,0,0,1,.1.1l.1.1.1.09.1.11.1.09.1.11.1.09.09.1.1.1.1.1a.94.94,0,0,1,.1.1l.1.1.1.09.1.11.1.09.1.11.1.09.09.1.1.1a124395540430.61,124395540430.61,0,0,0,.2.2l.1.1.1.09.1.11.1.09.1.11.1.09.09.1.1.1.1.1a.94.94,0,0,1,.1.1l.1.1.1.09.1.11.1.09.1.11.1.09.09.1.1.1.1.1.1.1a.94.94,0,0,1,.1.1l.1.09.1.11.1.09.1.11.1.09.09.1.1.1.1.1.1.1.1.1.1.09.1.11.1.09.1.11.1.09.09.1.1.1.1.1.1.1.1.1.1.09.1.11.1.09.1.11.1.09.09.1.1.1.1.1.1.1a.94.94,0,0,1,.1.1l.1.09.1.11.1.09.1.11.1.09.09.1.1.1.1.1.1.1a.94.94,0,0,1,.1.1l.1.09.1.11.1.09.1.11.1.09.09.1.1.1a.94.94,0,0,1,.1.1l.1.1a.94.94,0,0,1,.1.1l.1.09.1.11.1.09.1.11.1.09.09.1.1.1.1.1.1.1a.94.94,0,0,1,.1.1l.1.09.1.11.1.09.1.11.1.09.09.1.1.1.1.1.1.1.1.1.1.1.1.1.1.09.1.11.1.09.09.1.1.1a.94.94,0,0,1,.1.1.47.47,0,0,1,.1.1l.1.1.1.1.1.1.1.09.1.11.1.09.09.1.1.1a.94.94,0,0,1,.1.1l.1.1.1.1.1.1.1.1.1.09.1.11.1.09.09.1.1.1a.94.94,0,0,1,.1.1l.1.1.1.1.1.1.1.1.1.09.1.11.1.09.09.1.1.1a124395540479.12,124395540479.12,0,0,1,.2.2l.1.1.1.1.1.1.1.09.1.11.1.09.1.1.09.1.1.1.1.1.1.1.1.1.1.1.1.09.1.11.1.09.1.11.09.09.1.1.1.1.1.1a.94.94,0,0,1,.1.1l.1.1.1.09.1.11.1.09.1.11.09.09.1.1.1.1.1.1a.94.94,0,0,1,.1.1l.1.1.1.09.1.11.1.09.1.11.09.09.1.1.1.1a124395540577.69,124395540577.69,0,0,0,.2.2l.1.1.1.09.1.11.1.09.1.11.09.09a72.67,72.67,0,0,1,11,14.27c10.24-9.73,23.73-14.86,39.36-14.86,13.38,0,24.06,3.93,31.41,11.14l.2.2.2.2.2.2.2.19.19.2.2.2.2.2.2.2.2.19.19.2.2.2.2.2.2.2.2.19.19.2c.07.07.14.13.2.2l.2.2.2.2.2.19.19.2c.07.07.14.13.2.2l.2.2.2.2.2.19.19.2c.07.07.14.13.2.2l.2.2.2.2.2.19.19.2c.07.07.14.13.2.2l.2.2c.07.06.13.13.2.2l.2.19,0,0a35.53,35.53,0,0,1,2.77-4.42c6.58-9,16.55-13.48,29.63-13.48,12.4,0,20.47,4.47,25.63,9.46l.2.2.2.2.2.2.19.19c.07.07.13.14.2.2l.2.2.2.2.2.2.19.19c.07.07.13.14.2.2l.2.2.2.2.2.2.19.19c.07.07.13.14.2.2l.2.2.2.2.2.2.19.19c.07.07.13.14.2.2l.2.2.2.2.2.2a1.8,1.8,0,0,1,.19.2l.2.19.2.2.2.2.2.2a1.8,1.8,0,0,1,.19.2l.2.19.2.2.2.2.2.2a1.8,1.8,0,0,1,.19.2l.2.19.2.2.2.2.2.2c.07.06.13.13.2.2l.19.19.2.2.2.2.2.2c.07.06.13.13.2.2l.19.19.2.2.2.2.2.2c.07.06.13.13.2.2l.19.19.2.2.2.2.2.2c.07.06.13.13.2.2l.19.19.2.2.2.2.2.2c.07.06.13.13.2.2l.19.19.2.2.2.2.2.2c.07.06.13.13.2.2h0a45.15,45.15,0,0,1,2.7-9.32c4.8-11.16,13.35-12.83,18-12.83,5.65,0,10.31,1.8,13.86,5.37l.1.11.09.08.11.12.09.08.11.12.09.08.11.12.09.08.11.12.09.08.1.11.09.08.11.12.09.08.11.12.09.08.11.12.09.08.11.12.09.08.11.11a.6.6,0,0,0,.08.08l.11.12.09.08.11.12.09.08.11.12.09.08.11.12.09.08.11.11a.6.6,0,0,0,.08.08l.11.12.09.08.11.12.09.08.11.12.09.08.11.12.09.08.11.11a.6.6,0,0,0,.08.08l.11.12.09.08.11.12.09.08.11.12.09.08.11.12.09.08.11.11.08.08.11.12.09.08.11.12.09.08.11.12.09.08.11.12.09.08.11.11a.6.6,0,0,0,.08.08l.11.12.09.08.11.12.09.08.11.12.09.08.11.12.09.08.11.11a.6.6,0,0,0,.08.08l.11.12.09.08.11.12.09.08.11.12.09.08.11.12.09.08.11.11a.6.6,0,0,0,.08.08l.11.12.09.08.11.12.09.08.11.12.09.08.11.12.09.08a1.14,1.14,0,0,0,.11.11.6.6,0,0,0,.08.08l.11.12.09.08.11.12.09.08.11.12.09.08.11.12.09.08a1.14,1.14,0,0,0,.11.11.6.6,0,0,0,.08.08l.11.12.09.08.11.12.09.08.11.12.09.08.11.12.09.08a1.14,1.14,0,0,0,.11.11.6.6,0,0,0,.08.08l.11.12.09.08.11.12.09.08.11.12.09.08.11.12.09.08a1.14,1.14,0,0,0,.11.11.6.6,0,0,0,.08.08l.11.12.09.08.11.12.09.08.11.12.09.08.11.12.09.08a1.14,1.14,0,0,0,.11.11l.09.09.1.11.09.08.11.12.09.08.11.12.09.08.11.12.09.08a1.14,1.14,0,0,0,.11.11l.09.09.1.11.09.08.11.12.09.08.11.12.09.08.11.12.09.08a1.14,1.14,0,0,0,.11.11.76.76,0,0,0,.09.09l.1.11.09.08.11.12.09.08.11.12.09.08.11.12.06.05c.73-1,1.49-1.89,2.28-2.8,10.56-12,25.34-18.38,42.76-18.38,13.63,0,24.46,4.07,31.83,11.55l0-23.28c0-45.91,24-52.77,38.26-52.77,9.45,0,16.28,2.87,21.22,7.57l.2.2.2.2.2.2.19.19.2.2.2.2.2.2.2.2.19.19.2.2.2.2.2.2.2.2.19.19.2.2.2.2.2.2.2.2.19.19.2.2.2.2.2.2.2.2.19.19.2.2.2.2.2.2.2.2.19.19.2.2.2.2.2.2.2.2.19.19.2.2.2.2.2.2.2.2.19.19.2.2.2.2.2.2c.07.06.13.13.2.2l.19.19.2.2.2.2.2.2.2.2.19.19.2.2c.07.07.13.14.2.2l.2.2c.07.06.13.13.2.2l.19.19.2.2c.07.07.13.14.2.2l.2.2.2.2.19.19.2.2c.07.07.13.14.2.2l.2.2c.07.06.13.13.2.2l.19.19.2.2c.07.07.13.14.2.2s.13.13.2.2.13.13.2.2l.19.19.2.2c.07.07.13.14.2.2l.2.2c.07.06.13.13.2.2l.19.2.2.19c.07.07.13.14.2.2s.13.13.2.2.13.13.2.2l.19.2.2.19c.07.07.13.14.2.2l.2.2c.07.06.13.13.2.2l.19.2.2.19.2.2.2.2c.07.06.13.13.2.2a1.8,1.8,0,0,1,.19.2l.2.19c.07.07.13.14.2.2l.2.2c.07.06.13.13.2.2a1.8,1.8,0,0,1,.19.2l.2.19c.07.07.13.14.2.2l.2.2.2.2.2.2.19.19c10.39,9.69,12.48,27.41,12.64,43.94a59.06,59.06,0,0,1,28.45-6.81c13.43,0,24.68,4.41,33,12.83l.2.2.2.2.2.19.19.2c.07.07.14.13.2.2l.2.2.2.2.2.2.19.19c.07.07.14.13.2.2l.2.2.2.2.2.2.19.19c.07.07.14.13.2.2l.2.2.2.2.2.2.19.19.2.2.2.2.2.2.2.2.19.19.2.2c.07.07.14.13.2.2l.2.2c.07.06.13.13.2.2l.2.19.19.2.2.2.2.2c.07.06.13.13.2.2l.2.19.19.2.2.2.2.2.2.2.2.19.19.2c.07.07.14.13.2.2l.2.2.2.2.2.19.19.2.2.2.2.2.2.2.2.19.19.2c.07.07.14.13.2.2l.2.2.2.2.2.19.19.2.16.15a41,41,0,0,1,5.22-10c4.57-6.33,13.31-13.88,29-13.88,7.55,0,16.23,1.83,22.89,8.45l.19.2a1.89,1.89,0,0,1,.2.2l.2.19c.07.07.13.14.2.2l.2.2.19.2,0,0c6.47-6.42,15.13-9.66,25.9-9.66a40.65,40.65,0,0,1,28.57,11.65l.2.19.2.2c.07.07.13.14.2.2s.13.13.2.2l.19.2.2.19.2.2c.07.07.13.14.2.2s.13.13.2.2l.19.2.2.19.2.2c.07.07.13.14.2.2s.13.13.2.2l.19.2.2.19c.07.07.13.14.2.2s.13.14.2.2.13.13.2.2l.19.2.2.19c.07.07.13.14.2.2s.13.14.2.2.13.13.2.2l.19.2.2.19c.07.07.13.14.2.2s.13.14.2.2.13.13.2.2l.19.2.2.19c.07.07.13.14.2.2s.13.14.2.2.13.13.2.2l.19.2.2.19c.07.07.13.14.2.2s.13.14.2.2.13.13.2.2l.2.2.19.19c.07.07.13.14.2.2s.13.14.2.2.13.13.2.2l.2.2.19.19c.07.07.13.14.2.2s.13.14.2.2.13.13.2.2l.2.2.19.19c.07.07.13.14.2.2l.2.2c.07.06.13.13.2.2l.2.2.19.19.06.06c6.83-19.34,22.94-22.79,33.52-22.79,10.32,0,18.56,3.09,24.53,9.09l.19.19.2.2.2.2c.07.06.13.13.2.2l.2.2.09.09q10.31-10.14,28.24-10.17c8.24,0,17.78,2,25,9.08.07.06.13.13.2.2s.13.13.2.2l.2.19.19.2.2.2.2.2.12.11c6.93-7,16.42-10.6,28.39-10.6,10,0,18.32,3.27,24.49,9.34l.2.2.2.2.2.2.19.2.2.19.2.2.2.2.2.2.19.2.2.19.2.2.2.2.2.2.19.2.2.19.2.2.2.2.2.2.19.2.2.19.2.2.2.2.2.2.19.2.2.19.2.2.2.2.2.2.19.2.2.19.2.2.2.2.2.2.19.2.2.19.2.2.2.2.2.2.19.2.2.19c.07.07.13.14.2.2l.2.2.2.2.19.2.2.19c.07.07.13.14.2.2l.2.2.2.2.19.2.2.19c.07.07.13.14.2.2l.2.2c.07.06.13.13.2.2l.19.2.2.19c.07.07.13.14.2.2l.2.2c.07.06.13.13.2.2l.19.2.2.19c.07.07.13.14.2.2l.2.2.2.2.19.2.2.19c.07.07.13.14.2.2s.13.14.2.2l.2.2.19.2.2.19c.07.07.13.14.2.2l.2.2.2.2.19.2.2.19c.07.07.13.14.2.2l.2.2.2.2.19.2.2.19c.07.07.13.14.2.2l.2.2.2.2.19.2.2.19c.07.07.13.14.2.2l.2.2.2.2.19.2.2.19,0,0a56.49,56.49,0,0,1,6.19-8.59c10.55-12,25.34-18.38,42.76-18.38,13.45,0,24.17,4,31.53,11.26l.2.2.2.2.2.2.19.19.2.2.2.2.2.2.2.2.19.19.2.2.2.2.2.2.2.2.19.19.2.2.2.2.2.2.2.2.19.19.2.2.2.2.2.2.2.2.19.19.2.2.2.2.2.2.2.2.19.19.2.2.2.2.2.2.2.2.19.19a.76.76,0,0,1,.09.09c8.09-14.34,22.21-18.08,34.73-18.08,8.29,0,17.82,2,24.93,9.48l.2.2.2.2.19.19.2.2.2.2.2.2.2.2,0,0c8.47-8.81,19-11.13,27.65-11.13,10.91,0,20,3.94,26.6,11l.19.2.2.2.2.19.2.2c.06.07.13.13.2.2l.19.2c.07.07.14.13.2.2l.2.19.2.2.2.2.19.2c.07.07.14.13.2.2l.2.19c.07.07.14.13.2.2s.13.13.2.2l.2.2.19.2.2.19c.07.07.14.13.2.2s.13.13.2.2.13.13.2.2l.19.2.2.19c.07.07.14.13.2.2s.13.13.2.2.13.13.2.2l.19.2.2.19.2.2.2.2.2.2.19.2a1.89,1.89,0,0,1,.2.2,1.8,1.8,0,0,1,.2.19c.06.07.13.13.2.2l.2.2.19.2h0V47.73h10c10.54,0,19.63-5,23.16-12.66l2.68-5.83h20.4v.2h.2v.2h.2v.19h.2V30h.2v.2h.19v.2h.2v.2h.2v.19h.2V31h.2v.2h.19v.2h.2v.2h.2v.19h.2V32h.2v.2h.19v.2h.2v.2h.2v.19h.2V33h.2v.2h.19v.2h.2v.2h.2v.19h.2V34h.2v.2h.19v.2h.2v.2h.2v.19h.2V35h.2v.2h.2v.2h.19v.2h.2v.19h.2V36h.2v.2h.2v.2h.19v.2h.2v.19h.2V37h.2v.2h.2v.2h.19v.2h.2v.19h.2V38h.2v.2h.2v.2h.19v.2h.2v.19h.2v.2h.2v.2h.2v.2h.19v.2h.2v.19h.2v.2h.2v.2h.2v.2h.19v.2h.2v.19h.2v.2h.2v.2h.2v.2h.19v.2h.2v.19h.2v.2h.2v.2h.2v.2h.19v.2h.2v.19h.2v.2h.2v.2h.2v.2h.19v.2h.2v.19h.2v.2h.2v.2h.2v.2h.19v.2h.2v.19h.2v.2h.2v.2h.2v.2h.19v.2h.2v.19h.2v.2h.2v.2h.2v.2h.19v.2h.2v.19h.2v.2h.2v.2h.2v.2h.19v.2h.2v.2h.2v.19h.2v.2h.2v.2h.19v.2h.2v.2h.2v.19h.2V49h.2v.2h.19V69.82h.19V70h.2v.19h.19v.2h.2v.2h.2v.2h.2V71h.2v.19h.19v.2h.2v.2h.2v.2h.2V72h.2v.19h.19v.2h.2v.2h.2v.2h.2V73h.2v.19h.19v.2h.2v.2h.2v.2h.2V74h.2v.19h.19v.2h.2v.2h.2v.2h.2V75h.2v.19h.19v.2h.2v.2h.2v.2h.2V76h.2v.19h.19v.2h.2v.2h.2v.2h.2V77h.2v.19h.19v.2h.2v.2h.2v.2h.2v.2h.2v.19h.19v.2h.2v.2h.2v.2h.2v.2h.2v.19h.19v.2h.2v.2h.2v.2h.2v.2h.2v.19h.19v.2h.2v.2h.2v.2h.2v.2h.2v.19h.19v.2h.2v.2h.2v.2h.2v.2h.2v.19h.19v.2h.2v.2h.2v.2h.2v.2h.2v.19h.19v.2h.2v.2h.2v.2h.2v.2h.2v.19h.19v.2h.2v.2h.2v.2h.2v.2h.2v.19h.19v.2h.2v.2h.2v.2h.2v.2h.2v.19h.2v.2h.19v.2h.2v.2h.2v29h-17v30.7h.08v.2h.2v.19h.19v.2h.2v.2h.2v.2h.2v.2h.2v.19h.19v.2h.2v.2h.2v.2h.2v.2h.2v.19h.19v.2h.2v.2h.2v.2h.2v.2h.2v.19h.19v.2h.2v.2h.2v.2h.2v.2h.2v.19h.19v.2h.2v.2h.2v.2h.2v.2h.2v.19h.19v.2h.2v.2h.2v.2h.2v.2h.2v.2h.19v.19h.2v.2h.2v.2h.2v.2h.2v.2h.19v.19h.2v.2h.2v.2h.2v.2h.2v.2h.2v.19h.19v.2h.2v.2h.2v.2h.2v.2h.2v.19h.19v.2h.2v.2h.2v.2h.2v.2h.2v.19h.19v.2h.2v.2h.2v.2h.2v.2h.2v.19h.19v.2h.2v.2h.2v.2h.2v.2h.2v.19h.19v.2h.2v.2h.2v.2h.2v.2h.2v.19h.19v.2h.2v.2h.2v.2h.2v.2h.2v.19h.19v.2h.2v.2h.2v.2h.2v.2h.2v.19h.19v.2h.2v.2h.2v.2h.2v.2h.2v.19h.19v.2h.2v.2h.2v.2h.2v.2h.2v.19h.19v.2h.2v.2h.2v.2h.2v.2h.2v.19h.19v.2h.2v.2h.2v.2h.2v.2h.2v.19h.19v.2Z"/><path class="ab5a6866-53fe-4f93-bd9d-837072daf8e9" d="M879.32,42.3c0-17.41-5.91-27.3-23.67-27.3a36.36,36.36,0,0,0-15.39,3c2.67,8.17,3,17,3.41,37l.15,42.14c-4-12.47-12.73-17.63-25.16-17.63-17.38,0-29.74,12.57-35,32.31l-6,11.55c-3.25,6-5.47,10.1-7.69,11.61v-.22c0-34.83-11-55.25-41-55.25-21.7,0-36.33,11.55-43,29.75l-7.28,14.11c-3.25,6-5.47,10.1-7.69,11.61v-.22c0-34.83-11-55.25-41-55.25-30.63,0-47.2,23-47.2,55.25h0v10.11c0,14.62-4.44,20.21-11.39,20.21a15.72,15.72,0,0,1-6.36-1.29c3.1-11,4.73-25.37,4.73-43.86.15-34.19-3.1-40.42-10.95-40.42-6.36,0-11.24,6.45-11.24,37,0,28,3.4,42.78,9.62,49.88-2.07,5.8-5.77,9.67-10.36,9.67-6.36,0-9.76-4.51-9.76-15.69V81.65H500.87v66.86c0,18.49-5,24.3-10.06,24.3-3.7,0-6.36-3.87-6.36-12.47,0-10.32.88-30.1.88-44.72,0-26.45-10.8-36.12-27.07-36.12-15.83,0-30,8.6-30,39.13v19.13c0,31.61-13.31,43-30.62,43-13.76,0-21.31-6.66-22.93-27.95,30.33-3.22,44.68-17.63,44.68-41.06,0-20-10.65-32.25-32.85-32.25C357,79.5,338.14,101,338,134.75h0v7.74c0,21.07-4.44,32.25-18.79,37.2,4.29-5.38,6.21-12.26,6.21-20,0-11.82-4.88-20.85-11.69-32.46C307.79,117.12,302,107.88,302,99.49c0-6.88,2.82-11,8.88-11.39a10.06,10.06,0,0,1,2.66.64v-8.6a53,53,0,0,0-9.32-.64h-2.36c-28.26,0-41.28,13.33-41.28,48.16v6.23h0v5.38c0,19.13-4.88,26.23-14.8,26.23h-.74c3.41-8.6,5-18.92,5-30.32,0-34.83-12.42-55.68-39.5-55.68-30.78,0-48.51,22.8-48.67,55.25h0v29c0,5.59-1.33,8.17-4.29,8.17s-5.32-4.3-10.5-18.71C139.28,131.31,131,126.8,103,126.37v-1.72c26-4.52,40.83-22.15,40.83-44.51,0-31.39-24.85-43.64-69.24-43.64C40.89,36.5,15,50.26,15,78.21,15,94.76,22.84,104,37.34,104l.45-.65V91.11C37.79,56.92,52.58,43,74.18,43c19.83,0,31.22,11,31.22,41.92,0,26.45-5.92,38.06-17.16,37.84H85.13V73.05c0-14,1.48-16.34,2.22-17.63l-.74-1.29a24.16,24.16,0,0,0-7.7-1.29c-18.93,0-32.25,12-32.25,43.86v71.81c0,6.23-3.11,9-7.4,9-3.1,0-5.77-3.23-5.77-11.4v-9.46H28v9.46C28,182.05,35.27,191.3,51,191.3c23.38,0,34.18-13.33,34.18-36.12V130.67h3c6.66,0,8.28,2.79,15.83,29.24,6.21,21.71,13.31,31.39,33.29,31.39s29.47-7.19,30.14-26.74c7.44,17.08,22.32,26.74,43.24,26.74,14.2,0,24.56-7.1,31.22-18.71l3.25.22c13.47,0,21-9.25,21-32v-11c0-14,.89-22.79,5.33-28.81a35.54,35.54,0,0,0-1.78,11.18c0,11.82,3.55,18.7,9.92,28.81,6.06,9.46,9.61,15.26,9.61,24.08,0,7.52-4.88,14.83-14,14.83a34.83,34.83,0,0,1-4.44-.43v8c4.44,2.15,13.17,3.87,21.75,3.87,32.42,0,45.67-9.57,49.64-30.91,6.93,18.93,22.74,30.91,47.71,30.91,30.92,0,43.94-19.57,43.94-53.54V118.63c0-13.76,3.84-18.28,9-18.28,3.7,0,6.51,3.23,6.51,11.83,0,11.39-.74,26.87-.74,40.42-.14,25.58,9,38.7,28.26,38.7,13.76,0,22.19-8,26.19-20.64,4.14,14.62,14.35,20.64,29.88,20.64,13.91,0,23.82-6.24,29.74-20.64a20,20,0,0,0,8.88,1.72c6.75,0,12.33-4.25,15.06-13.31,6.89,20.57,23,32.23,43.53,32.23,27.81,0,38.91-17.85,40.68-47.3,3.7-2.8,7.25-7.31,11.25-14.84l0,0c-.12,1.84-.18,3.73-.18,5.64,0,35.48,19.53,56.55,47.2,56.55s38.91-17.85,40.68-47.3c3.7-2.8,7.25-7.31,11.25-14.84l0,0q-.16,3-.17,6.06c0,32.9,12.87,56.12,35.21,56.12,14.65,0,24.71-6.24,28.85-21.72,1.92,11.18,5.48,21.72,21.31,21.72,6.36,0,12.87-2.37,15.38-8.6-1.48-5.59-2.22-23.22-2.22-41.07ZM234.86,171.09c-3.7,6.23-8.88,9.46-15.1,9.46-14,0-21.3-13.55-21.3-45.37s6.81-44.93,19.83-44.93c7.1,0,12.87,3.65,17.45,10.53-8.58.65-16.86,11.83-16.86,33.11C218.88,156.68,225.53,167.22,234.86,171.09Zm139.36-28.6v-17.2c0-27.73,3.41-35.47,10.36-35.47,5,0,7.84,4.51,7.84,21.28v5c.15,15.91-4.14,23.86-12.57,26.23l-5.63,1.5Zm266.46,38.06c-12.13,0-21.3-14-21.3-45.8s9.17-44.5,22.78-44.5a11.33,11.33,0,0,1,2.66.21c-4.44,4.3-7.1,11.61-7.1,25.37,0,21.93,7.7,31.61,20,31.61a31.64,31.64,0,0,0,6.65-.65C662,169.58,652.52,180.55,640.68,180.55Zm99,0c-12.13,0-21.31-14-21.31-45.8s9.18-44.5,22.79-44.5a11.38,11.38,0,0,1,2.66.21c-4.44,4.3-7.1,11.61-7.1,25.37,0,21.93,7.69,31.61,20,31.61a31.67,31.67,0,0,0,6.66-.65C761,169.58,751.49,180.55,739.66,180.55Zm90.25-3.87c-7.4,0-12.28-12-12.28-42.14,0-31,4-40.42,12.28-40.42,8,0,12.87,9.46,12.87,40.42C842.78,166.79,838.49,176.68,829.91,176.68Z"/><path class="f3d940fc-7618-4c2a-a2dd-7f9adbe25952" d="M1033.86,36.5c-37.58,0-62,16.34-62,42.57,0,15.05,7.4,24.94,20.72,24.94V93.26c0-34.83,18.34-50.31,38-50.31,26.34,0,42.46,20,42.46,72.67,0,43.21-11.83,62.56-24.56,62.56-4.58,0-7.4-1.29-11.83-4.94,3.4-7.53,4.88-17.2,4.88-29.24V70.9c0-14,1.48-16.34,2.22-17.63L1043,52a23.86,23.86,0,0,0-8.58-1.29c-17.61,0-31.37,12-31.37,41.71v50.09a12.4,12.4,0,0,0-5-1.07c-9.62,0-15.53,9.24-15.53,23,0,15.27,7.1,26.88,23.82,26.88,12.42,0,21.15-4.09,26.92-11.83,10.51,9.25,18.35,11.83,30.19,11.83,22.48,0,49.26-29,49.26-75.47C1112.71,65.09,1084.31,36.5,1033.86,36.5Zm-30.78,130.29c0,7.31-2.51,10.75-6.51,10.75-4.44,0-7.84-4.52-7.84-13.55,0-8.38,3-14.4,8.88-14.4a10.6,10.6,0,0,1,5.47,1.29Z"/><path class="f3d940fc-7618-4c2a-a2dd-7f9adbe25952" d="M2149.1,161v3.44c0,6.67-2.37,10.54-6.51,10.54-5.18,0-7.7-4.52-7.7-15.05V90.68h17v-9h-17V44.24h-4c-5.33,11.61-18.2,18.49-32.25,18.49v72h0v23.87c0,10.53-3.41,16.55-9.18,16.55s-8.13-5.37-8.13-12.9c0-15.48,1.62-36.76,1.62-47.51,0-18.71-8.43-35.48-28.25-35.48-12.73,0-23.53,6-29.15,23.87-2.22-15.48-9.62-23.65-24.86-23.65-18.34,0-31.36,9-31.36,38.91v16.34h0v3c0,31.61-13.32,43-30.63,43-13.75,0-21.3-6.66-22.93-27.95,30.33-3.22,44.68-17.63,44.68-41.06,0-20-10.65-32.25-32.84-32.25-29.47,0-48.36,21.53-48.52,55.25h0v21.72c0,11.82-3.4,18.7-9.17,18.7s-8.14-5.37-8.14-12.9c0-13.76,1.63-33.32,1.63-46.22,0-21.29-8-36.77-27.08-36.77-14.2,0-24.41,5.81-29.29,22.36-2.52-13.76-9.77-22.14-25.45-22.14-14.94,0-24.56,5.8-29.14,21.71-3-15.48-11.4-21.71-24.71-21.71-16.57,0-26.78,9.67-26.78,34.61v31.18c0,25.8-9,35.69-32.7,36.76V181c15.09-7.31,22.49-26.23,22.49-50.1,0-33.32-16.57-51.38-36.25-51.38-11.83,0-22,4.51-27.07,21.93-2.22-14.41-8.88-21.93-22.93-21.93-18,0-28.26,12.25-28.26,41.06v13.33h0v5.38c0,19.13-4.89,26.23-14.8,26.23h-.74c3.41-8.6,5-18.92,5-30.32,0-34.83-12.43-55.68-39.5-55.68-30.78,0-48.51,22.8-48.67,55.25h0v20.43c0,13.33-5.62,19.78-13.61,19.78-9.32,0-13.16-6-13.16-22.15V118.2c12.13-10.11,17-33.76,17-59.77,0-33.76-8.29-43.43-23.67-43.43-19.09,0-28.26,14.83-28.26,42.78l-.14,77h0v3c0,31.61-13.31,43-30.62,43-13.76,0-21.31-6.66-22.93-27.95,30.32-3.22,44.68-17.63,44.68-41.06,0-20-10.66-32.25-32.85-32.25-29.46,0-48.36,21.53-48.52,55.25h0v2.58c0,12.26-4.14,19.35-12.72,19.35a15.38,15.38,0,0,1-4.14-.64c2.07-9.89,3.25-22.15,3.25-37,.15-33.33-3.85-39.56-12.57-39.56-7,0-12.43,6.23-12.43,35.47,0,25.59,4.88,40.42,14.5,46.23-2.37,9.46-8.73,18.49-17.31,18.49-10.51,0-15.54-8.6-15.54-26.23V118.63c0-25.59-8.58-39.13-28.26-39.13-19.08,0-28.85,11.39-28.85,41.06v14.19h0v3c0,31.61-13.31,43-30.62,43-13.76,0-21.31-6.66-22.93-27.95,30.33-3.22,44.68-17.63,44.68-41.06,0-20-10.65-32.25-32.85-32.25-29.59,0-48.52,21.71-48.52,55.68,0,32.9,17,56.12,51.78,56.12,30.92,0,43.94-19.57,43.94-53.54v-3h0V120.56c0-15,3.84-20.21,8.73-20.21,4.44,0,6.65,4.09,6.65,11.18V144c0,31.82,13.17,47.3,39.21,47.3,17.61,0,29.15-8.39,35.21-28a28.15,28.15,0,0,0,6.07.64c6.71,0,11.88-3.17,15-9.59,5.65,22.36,22,36.9,49.54,36.9,21.86,0,34.77-9.8,40.45-27.54,4.3,21.08,15.45,27.54,32.34,27.54,19.67,0,30.06-11.05,32.45-27.91,7.27,17.82,22.35,27.91,43.74,27.91,14.2,0,24.56-7.1,31.22-18.71l3.25.22c13.47,0,21-9.25,21-32V122.71c0-15.91,3-23.22,7.69-23.22q4,0,4,6.45v95.89c0,13.55-.59,20.64-3.55,24.3,2.66,4.51,10.5,6,18.05,6,17.16,0,21.75-11.83,21.75-30.32V184.2c8,5.16,18.34,7.1,33.43,7.1,29.15,0,43.35-12.26,43.35-41.71V134.75h0V115.4c0-11,2.52-15.91,7.25-15.91,3.55,0,5.18,3.44,5.18,9.46v80.2H1755V128.73c0-21.5,4.44-30.31,10.8-30.31,5.18,0,7.25,4.3,7.25,13.76v77h36.25V129c0-24.08,5.18-28.6,10.65-28.6,4.44,0,6.95,4.3,6.95,12,0,9.68-1.33,27.31-1.33,36.55,0,29.46,10.8,42.36,31.66,42.36,15,0,25-9.4,27-28.33,7.39,17.43,22.87,28.33,46.68,28.33,30.92,0,43.94-19.57,43.94-53.54v-3h0V118.41c0-12.68,3.26-18.92,8.88-18.92,4,0,6.36,3.44,6.36,9v80.63h36.25v-54.4c0-24.51,5.77-34.4,12.87-34.4,4.88,0,7.25,4.3,7.25,12,0,9.68-1.33,27.31-1.33,36.55,0,29,6.06,42.36,29.88,42.36,13.75,0,23.06-5.85,27-18.05,4.42,12.74,13.3,18.05,27.14,18.05,17.91,0,25.45-8.82,25.45-26.45V161ZM1450.92,38c0-4.94,1.34-7.31,4.15-7.31,4,0,6.8,6.24,6.8,26.66,0,25.16-4.29,42.79-11.09,49.24ZM1157.39,142.49v-17.2c0-27.73,3.41-35.47,10.36-35.47,5,0,7.84,4.51,7.84,21.28v5c.15,15.91-4.14,23.86-12.57,26.23l-5.63,1.5Zm204.32,0v-17.2c0-27.73,3.4-35.47,10.36-35.47,5,0,7.84,4.51,7.84,21.28v5c.15,15.91-4.14,23.86-12.58,26.23l-5.62,1.5Zm188.78,28.6c-3.7,6.23-8.87,9.46-15.09,9.46-14.05,0-21.3-13.55-21.3-45.37s6.8-44.93,19.82-44.93c7.11,0,12.87,3.65,17.46,10.53-8.58.65-16.86,11.83-16.86,33.11C1534.52,156.68,1541.17,167.22,1550.49,171.09ZM1640.6,179a17,17,0,0,1-10.95-3.87V130.45c0-24.72,4.73-36.33,12.87-36.33,7.84,0,11.69,6,11.69,41.06C1654.21,171.09,1649.62,179,1640.6,179Zm274.74-36.55v-17.2c0-27.73,3.4-35.47,10.36-35.47,5,0,7.84,4.51,7.84,21.28v5c.14,15.91-4.15,23.86-12.58,26.23l-5.62,1.5Z"/><path class="a8d12816-ea71-4616-bc29-89be25912942" d="M861.16,187.3c-15,0-19.41-9-21.54-18.66-4.61,12.55-14,18.66-28.62,18.66-22,0-36.21-22.42-36.21-57.12,0-.65,0-1.3,0-2-3.06,5.18-6,8.81-9.15,11.28-1,15.55-4.51,26.94-10.76,34.8-6.95,8.74-17,13-30.89,13-29.28,0-48.2-22.59-48.2-57.55,0-.5,0-1,0-1.51-3.05,5.18-6,8.81-9.14,11.27-1,15.55-4.51,26.94-10.76,34.8-6.94,8.74-17,13-30.89,13-20.35,0-36.07-11-43.52-30.25-3,7.33-8.26,11.33-15.07,11.33a21.8,21.8,0,0,1-8.35-1.4c-5.93,13.67-15.84,20.32-30.27,20.32-15.53,0-25.35-6.07-29.92-18.52-4.73,12.13-13.72,18.52-26.15,18.52-8.31,0-14.95-2.44-19.73-7.24-6.41-6.45-9.61-17.38-9.53-32.47,0-7.07.2-14.63.4-21.94.18-6.7.34-13,.34-18.47,0-4.94-1-10.83-5.51-10.83-5.32,0-8,5.82-8,17.28v19.13c0,36.19-15.12,54.54-44.94,54.54-22.69,0-39.4-10.09-47.42-28.5-5,20.19-19.73,28.5-49.93,28.5-8.24,0-17.36-1.64-22.19-4a1,1,0,0,1-.56-.9v-8a1,1,0,0,1,.34-.75,1,1,0,0,1,.66-.25h.13l.46.06a30,30,0,0,0,3.85.36c9,0,13-7.17,13-13.83,0-8.4-3.24-13.85-9.46-23.54s-10.07-16.93-10.07-29.35c0-.93,0-1.86.1-2.77-1.31,5.24-1.65,11.92-1.65,20.4v11c0,22.23-7.2,33-22,33l-2.7-.18c-7.21,12.22-18.18,18.67-31.77,18.67-19.69,0-34.3-8.24-42.5-23.88-1.73,16.69-11.16,23.88-30.88,23.88-21.19,0-28.16-10.82-34.25-32.12-7.59-26.58-9.07-28.51-14.87-28.51h-2v23.51C81.13,174.46,69,187.3,46,187.3,30.3,187.3,22,178.25,22,161.14v-9.46a1,1,0,0,1,1-1h5.47a1,1,0,0,1,1,1v9.46c0,6.51,1.79,10.4,4.77,10.4,4.13,0,6.4-2.85,6.4-8V91.7c0-37.08,18.08-44.86,33.25-44.86A25.26,25.26,0,0,1,82,48.21a1,1,0,0,1,.46.42l.74,1.29a1,1,0,0,1,0,1c-.69,1.21-2.08,3.62-2.08,17.13v48.66h2.41c10.67,0,15.86-12.06,15.86-36.85C99.4,51.57,90.08,39,69.18,39,46,39,33.79,55.26,33.79,86.11V98.36a1,1,0,0,1-.18.57l-.45.65a1,1,0,0,1-.82.43C17.29,100,9,90.49,9,73.21,9,46.86,32.23,30.5,69.62,30.5c23.3,0,40.24,3.33,51.78,10.19,12.42,7.38,18.46,18.65,18.46,34.45,0,23.21-15.42,40.44-40.36,45.26,27.58.59,35.85,5.93,43.56,27.51,4.85,13.48,7.26,18,9.56,18,1,0,3.29,0,3.29-7.17v-29s0-.09,0-.14c.22-34.09,19.7-56.11,49.67-56.11,26.5,0,40.5,19.6,40.5,56.68,0,11.18-1.53,21-4.57,29.31,6.58-.23,13.08-3.77,13.08-25.22V122.66c0-34.46,12.64-49.16,42.28-49.16h2.36a54.09,54.09,0,0,1,9.51.66,1,1,0,0,1,.81,1v8.6a1,1,0,0,1-.5.87,1,1,0,0,1-.5.13,1,1,0,0,1-.5-.13,4.51,4.51,0,0,0-1.39-.36c-.28,0-.57-.08-.84-.14-5.25.43-7.81,3.83-7.81,10.38,0,7.58,5.07,16.19,10.43,25.31l1.13,1.92c7.14,12.19,11.82,21.07,11.82,33,0,7-1.51,12.94-4.49,17.84,10.92-5,15.07-14.94,15.07-35v-7.86c.21-34.1,19.64-56.13,49.52-56.13,21.83,0,33.85,11.81,33.85,33.25,0,24.43-15,38.54-44.61,41.95,1.88,21.6,10.11,26.06,21.86,26.06,19.38,0,29.62-14.52,29.62-42V113.63c0-33.17,16.88-40.13,31-40.13,18.63,0,28.07,12.49,28.07,37.12,0,8-.26,17.59-.5,26.09-.2,7.16-.38,13.93-.38,18.63,0,7.29,1.95,11.47,5.36,11.47,2.72,0,9.06-2.27,9.06-23.3V76.65a1,1,0,0,1,1-1h36.25a1,1,0,0,1,1,1v78.69c0,13,4.68,14.69,8.76,14.69,3.81,0,7.15-3.08,9.22-8.47-6.47-7.86-9.48-23.81-9.48-50.08,0-27,3.55-38,12.24-38a8.36,8.36,0,0,1,6.34,2.33c4.2,4.21,5.72,14.81,5.61,39.09,0,17.9-1.48,32.07-4.53,43.27a15.23,15.23,0,0,0,5.16.88c7,0,10.39-6.29,10.39-19.21V129.75c0-34.7,18.47-56.25,48.2-56.25,28.11,0,41.48,17.22,42,54.14,1.64-2,3.49-5.43,5.82-9.76l7.25-14C687.29,84.28,702.89,73.5,724,73.5c28.11,0,41.48,17.22,42,54.14,1.64-2,3.49-5.43,5.83-9.76l5.9-11.43c5.63-20.94,18.73-32.95,36-32.95,11.68,0,19.62,4.41,24.14,13.44L837.67,50c-.45-20.13-.74-28.63-3.36-36.67a1,1,0,0,1,.53-1.22A37.67,37.67,0,0,1,850.65,9c17.06,0,24.67,8.73,24.67,28.3v99.33c0,19.78.86,35.8,2.19,40.81a1,1,0,0,1,0,.63C875.1,183.93,869.16,187.3,861.16,187.3Zm-125-101.05c-14.25,0-21.79,15-21.79,43.5s7.4,44.8,20.31,44.8c12,0,20.15-11.47,22.53-31.53a34.38,34.38,0,0,1-5.52.42c-9.57,0-21-5.66-21-32.61,0-11.66,1.92-19.55,6-24.58Zm-99,0c-14.25,0-21.78,15-21.78,43.5s7.4,44.8,20.3,44.8c12,0,20.15-11.47,22.53-31.53a33,33,0,0,1-5.51.42c-9.57,0-21-5.66-21-32.61,0-11.66,1.93-19.56,6-24.58Zm-423.87,0c-12.85,0-18.83,14-18.83,43.93,0,30.27,6.45,44.37,20.3,44.37,5.59,0,10.17-2.7,13.64-8-10.3-4.94-15.52-17.6-15.52-37.64,0-21.06,8.07-32,16.12-33.85C224.66,89.13,219.51,86.25,213.29,86.25Zm611.62,3.87c-6.77,0-11.28,6.7-11.28,39.42,0,34,6.13,41.14,11.28,41.14,6.16,0,11.87-5,11.87-41.14C836.78,94.6,830.44,90.12,824.91,90.12Zm-445.33-4.3c-5.62,0-9.36,5.86-9.36,34.47v17.19l4.37-1.17c8.2-2.3,12-10.33,11.83-25.25v-5C386.42,88.28,383.13,85.82,379.58,85.82Z"/><path d="M850.65,10c17.76,0,23.67,9.89,23.67,27.3v99.33c0,17.85.74,35.48,2.22,41.07-2.51,6.23-9,8.6-15.38,8.6-15.83,0-19.39-10.54-21.31-21.72-4.14,15.48-14.2,21.72-28.85,21.72-22.34,0-35.21-23.22-35.21-56.12q0-3.09.17-6.06l0,0c-4,7.53-7.55,12-11.25,14.84-1.77,29.45-12.87,47.3-40.68,47.3s-47.2-21.07-47.2-56.55c0-1.91.06-3.8.18-5.64l0,0c-4,7.53-7.55,12-11.25,14.84-1.77,29.45-12.87,47.3-40.68,47.3-20.58,0-36.64-11.66-43.53-32.23-2.73,9.06-8.31,13.31-15.06,13.31a20,20,0,0,1-8.88-1.72c-5.92,14.4-15.83,20.64-29.74,20.64-15.53,0-25.74-6-29.88-20.64-4,12.68-12.43,20.64-26.19,20.64-19.23,0-28.4-13.12-28.26-38.7,0-13.55.74-29,.74-40.42,0-8.6-2.81-11.83-6.51-11.83-5.18,0-9,4.52-9,18.28v19.13c0,34-13,53.54-43.94,53.54-25,0-40.78-12-47.71-30.91-4,21.34-17.22,30.91-49.64,30.91-8.58,0-17.31-1.72-21.75-3.87v-8a34.83,34.83,0,0,0,4.44.43c9.17,0,14-7.31,14-14.83,0-8.82-3.55-14.62-9.61-24.08-6.37-10.11-9.92-17-9.92-28.81A35.54,35.54,0,0,1,266.4,96c-4.44,6-5.33,14.83-5.33,28.81v11c0,22.79-7.54,32-21,32l-3.25-.22c-6.66,11.61-17,18.71-31.22,18.71-20.92,0-35.8-9.66-43.24-26.74-.67,19.55-10,26.74-30.14,26.74s-27.08-9.68-33.29-31.39c-7.55-26.45-9.17-29.24-15.83-29.24h-3v24.51C80.13,173,69.33,186.3,46,186.3,30.27,186.3,23,177.05,23,161.14v-9.46h5.47v9.46c0,8.17,2.67,11.4,5.77,11.4,4.29,0,7.4-2.8,7.4-9V91.7c0-31.82,13.32-43.86,32.25-43.86a24.16,24.16,0,0,1,7.7,1.29l.74,1.29c-.74,1.29-2.22,3.65-2.22,17.63v49.66h3.41c11,0,16.86-11.64,16.86-37.85C100.4,48.91,89,38,69.18,38c-21.6,0-36.39,14-36.39,48.16V98.36l-.45.65C17.84,99,10,89.76,10,73.21,10,45.26,35.89,31.5,69.62,31.5c44.39,0,69.24,12.25,69.24,43.64,0,22.36-14.79,40-40.83,44.51v1.72c28,.43,36.25,4.94,44.09,26.87,5.18,14.41,7.54,18.71,10.5,18.71s4.29-2.58,4.29-8.17v-29h0c.16-32.45,17.89-55.25,48.67-55.25,27.08,0,39.5,20.85,39.5,55.68,0,11.4-1.62,21.72-5,30.32h.74c9.92,0,14.8-7.1,14.8-26.23v-5.38h0v-6.23c0-34.83,13-48.16,41.28-48.16h2.36a53,53,0,0,1,9.32.64v8.6a10.06,10.06,0,0,0-2.66-.64c-6.06.43-8.88,4.51-8.88,11.39,0,8.39,5.77,17.63,11.69,27.74,6.81,11.61,11.69,20.64,11.69,32.46,0,7.74-1.92,14.62-6.21,20,14.35-4.95,18.79-16.13,18.79-37.2v-7.74h0C333.14,96,352,74.5,381.5,74.5c22.2,0,32.85,12.25,32.85,32.25,0,23.43-14.35,37.84-44.68,41.06,1.62,21.29,9.17,27.95,22.93,27.95,17.31,0,30.62-11.39,30.62-43V113.63c0-30.53,14.21-39.13,30-39.13,16.27,0,27.07,9.67,27.07,36.12,0,14.62-.88,34.4-.88,44.72,0,8.6,2.66,12.47,6.36,12.47,5,0,10.06-5.81,10.06-24.3V76.65h36.25v78.69c0,11.18,3.4,15.69,9.76,15.69,4.59,0,8.29-3.87,10.36-9.67-6.22-7.1-9.62-21.93-9.62-49.88,0-30.53,4.88-37,11.24-37,7.85,0,11.1,6.23,10.95,40.42,0,18.49-1.63,32.89-4.73,43.86a15.72,15.72,0,0,0,6.36,1.29c6.95,0,11.39-5.59,11.39-20.21V129.75h0c0-32.25,16.57-55.25,47.2-55.25,30,0,41,20.42,41,55.25V130c2.22-1.51,4.44-5.59,7.69-11.61L681,104.25c6.7-18.2,21.33-29.75,43-29.75,30,0,41,20.42,41,55.25V130c2.22-1.51,4.44-5.59,7.69-11.61l6-11.55c5.28-19.74,17.64-32.31,35-32.31,12.43,0,21.16,5.16,25.16,17.63L838.67,50c-.45-20-.74-28.81-3.41-37a36.36,36.36,0,0,1,15.39-3M369.22,138.78l5.63-1.5c8.43-2.37,12.72-10.32,12.57-26.23v-5c0-16.77-2.81-21.28-7.84-21.28-6.95,0-10.36,7.74-10.36,35.47v18.49m365.44,36.77c11.83,0,21.3-11,23.67-33.76a31.67,31.67,0,0,1-6.66.65c-12.28,0-20-9.68-20-31.61,0-13.76,2.66-21.07,7.1-25.37a11.38,11.38,0,0,0-2.66-.21c-13.61,0-22.79,12.68-22.79,44.5s9.18,45.8,21.31,45.8m-99,0c11.84,0,21.31-11,23.67-33.76a31.64,31.64,0,0,1-6.65.65c-12.28,0-20-9.68-20-31.61,0-13.76,2.66-21.07,7.1-25.37a11.33,11.33,0,0,0-2.66-.21c-13.61,0-22.78,12.68-22.78,44.5s9.17,45.8,21.3,45.8m-420.92,0c6.22,0,11.4-3.23,15.1-9.46-9.33-3.87-16-14.41-16-37.2,0-21.28,8.28-32.46,16.86-33.11-4.58-6.88-10.35-10.53-17.45-10.53-13,0-19.83,13.11-19.83,44.93s7.25,45.37,21.3,45.37m610.15-3.87c8.58,0,12.87-9.89,12.87-42.14,0-31-4.88-40.42-12.87-40.42-8.29,0-12.28,9.46-12.28,40.42,0,30.1,4.88,42.14,12.28,42.14M850.65,8a39,39,0,0,0-16.22,3.19,2,2,0,0,0-1.07,2.44c2.58,7.9,2.86,16.35,3.31,36.4l.11,33.25c-4.91-7.16-12.65-10.78-23.12-10.78-17.69,0-31.13,12.24-36.9,33.59l-5.86,11.35c-1.48,2.75-2.81,5.2-4,7.11-.54-16.1-3.66-28.11-9.49-36.62-7-10.24-18.27-15.43-33.4-15.43-21.55,0-37.47,11-44.86,31l-7.22,14c-1.49,2.74-2.82,5.2-4,7.11-.54-16.1-3.66-28.11-9.5-36.62-7-10.24-18.26-15.43-33.4-15.43s-28,5.63-36.63,16.27c-8.22,10.09-12.57,24.26-12.57,41v10.11c0,18.21-7.07,18.21-9.39,18.21a14.5,14.5,0,0,1-4-.54c2.91-11.14,4.32-25.11,4.32-42.61.11-24.58-1.49-35.37-5.9-39.8a9.29,9.29,0,0,0-7-2.62c-9.4,0-13.24,11.29-13.24,39,0,26,3,42.05,9.33,50.25-1.91,4.66-4.81,7.3-8.07,7.3-3.62,0-7.76-1.55-7.76-13.69V76.65a2,2,0,0,0-2-2H495.87a2,2,0,0,0-2,2v66.86c0,14-3,22.3-8.06,22.3-2.73,0-4.36-3.92-4.36-10.47,0-4.69.18-11.45.38-18.61.24-8.5.5-18.14.5-26.11,0-25.3-9.78-38.12-29.07-38.12-14.62,0-32,7.13-32,41.13v19.13c0,14.42-2.81,25.22-8.37,32.1-4.78,5.91-11.59,8.9-20.25,8.9-11,0-18.8-4.17-20.77-24.18,14.4-1.8,25.47-6.26,32.92-13.26,7.7-7.23,11.6-17.18,11.6-29.57,0-22.09-12.38-34.25-34.85-34.25C351,72.5,331.21,94.9,331,129.58v7.91c0,17.73-3.26,27.33-11.64,32.59a36.73,36.73,0,0,0,3.06-15.39c0-12.15-4.74-21.15-12-33.47l-1.13-1.93C304,110.3,299,101.8,299,94.49c0-7.73,3.77-9.1,6.75-9.37l.75.12a5.14,5.14,0,0,1,1,.23,2,2,0,0,0,1,.27,2.07,2.07,0,0,0,1-.26,2,2,0,0,0,1-1.74v-8.6a2,2,0,0,0-1.61-2,54.44,54.44,0,0,0-9.71-.68h-2.36c-15.08,0-25.79,3.82-32.74,11.69-7.09,8-10.54,20.62-10.54,38.47v11.61c0,18.95-4.87,23.36-10.63,24.1,2.74-8.07,4.12-17.54,4.12-28.19,0-37.73-14.35-57.68-41.5-57.68-15.43,0-28.35,5.59-37.34,16.16-8.6,10.12-13.21,24.25-13.33,40.89,0,.07,0,.13,0,.2v29c0,6.17-1.66,6.17-2.29,6.17-2.37,0-6.44-11.31-8.62-17.38-7.2-20.15-14.85-26.47-37.45-27.89,21.38-6.55,34.31-23,34.31-44.54,0-16-6.37-27.84-19-35.31C110.21,32.88,93.1,29.5,69.62,29.5,31.61,29.5,8,46.25,8,73.21,8,90.88,16.87,101,32.34,101a2,2,0,0,0,1.65-.87l.44-.64a2,2,0,0,0,.36-1.14V86.11c0-15.88,3.24-27.86,9.64-35.63C50.18,43.49,58.51,40,69.18,40,79,40,86,42.76,90.67,48.56c5.2,6.45,7.73,16.7,7.73,31.31,0,24.12-4.86,35.85-14.86,35.85H82.13V68.05c0-13.24,1.34-15.58,1.92-16.58l0-.06a2,2,0,0,0,0-2l-.74-1.29a2,2,0,0,0-.93-.83,26.24,26.24,0,0,0-8.5-1.46c-15.62,0-34.25,8-34.25,45.86v71.81c0,4.66-1.81,7-5.4,7-2.32,0-3.77-3.6-3.77-9.4v-9.46a2,2,0,0,0-2-2H23a2,2,0,0,0-2,2v9.46c0,8.58,2.05,15.27,6.08,19.86,4.25,4.84,10.59,7.3,18.85,7.3,23.67,0,36.18-13.18,36.18-38.12V127.67h1c4.93,0,6.24.93,13.9,27.79,6.1,21.3,13.52,32.84,35.22,32.84,19.16,0,28.91-6.6,31.48-21.79A43.38,43.38,0,0,0,177.86,181c7.7,4.82,17,7.27,27.73,7.27,13.76,0,24.91-6.44,32.32-18.63l2,.13h.13c7.59,0,13.38-2.81,17.2-8.34s5.81-14.06,5.81-25.7v-11c0-3.43.06-6.56.21-9.41,1.38,8.1,4.85,14.17,9.56,21.65,6.12,9.55,9.31,14.9,9.31,23,0,6.18-3.77,12.83-12,12.83a29.46,29.46,0,0,1-3.72-.35l-.46-.06-.26,0a2,2,0,0,0-2,2v8a2,2,0,0,0,1.13,1.8c5,2.43,14.11,4.07,22.62,4.07,29.43,0,44.46-7.8,50.17-26.6,8.57,17.21,25.1,26.6,47.18,26.6,30.48,0,45.94-18.69,45.94-55.54V113.63c0-10.8,2.36-16.28,7-16.28,3.73,0,4.51,5.35,4.51,9.83,0,5.42-.16,11.75-.34,18.45-.2,7.31-.4,14.88-.4,22-.08,15.35,3.22,26.52,9.83,33.16,5,5,11.84,7.54,20.43,7.54,12.09,0,21-5.82,26.13-16.9,5,11.36,14.89,16.9,29.94,16.9,14.57,0,24.66-6.57,30.8-20.05a23.81,23.81,0,0,0,7.82,1.13c6.56,0,11.77-3.45,15-9.82a48.6,48.6,0,0,0,15.48,19.95A46.93,46.93,0,0,0,625,188.3c14,0,24.63-4.5,31.67-13.36,6.32-8,9.91-19.39,10.95-34.92a37.09,37.09,0,0,0,7.18-8.3c.34,16.76,5.06,30.87,13.69,40.91,8.81,10.25,21.08,15.67,35.49,15.67,14,0,24.62-4.5,31.67-13.36,6.32-8,9.91-19.39,11-34.92a36.68,36.68,0,0,0,7.17-8.28c.2,16.15,3.47,29.92,9.51,39.87,6.61,10.92,16.19,16.69,27.69,16.69,14,0,23.33-5.42,28.41-16.51,2.68,9.2,8.1,16.51,21.75,16.51,8.43,0,14.71-3.59,17.24-9.85a2,2,0,0,0,.08-1.26c-1.29-4.87-2.16-21.16-2.16-40.56V37.3c0-12.58-2.66-29.3-25.67-29.3ZM371.22,136.18V120.29c0-29.42,4-33.47,8.36-33.47,1.9,0,5.84,0,5.84,19.28v5c.18,18.94-6.26,22.94-11.11,24.3l-3.09.83ZM214.76,173.55c-8.28,0-19.3-4.5-19.3-43.37,0-38.48,10.17-42.93,17.83-42.93,5.46,0,10.07,2.37,14,7.23-8.11,2.81-15.42,13.88-15.42,34.41,0,19.79,5.06,32.56,15.05,38-3.19,4.41-7.27,6.65-12.17,6.65Zm519.9,0c-5.57,0-10.08-3.32-13.42-9.88-3.91-7.65-5.89-19.07-5.89-33.92s2-26,6-33.21c3.23-5.78,7.6-8.82,13.33-9.24-3.41,5.22-5,12.84-5,23.53,0,11,1.92,19.48,5.72,25.14s9.23,8.47,16.25,8.47a35.43,35.43,0,0,0,4.36-.25c-2.5,18.7-10.21,29.36-21.37,29.36Zm-99,0c-5.56,0-10.08-3.32-13.42-9.88-3.9-7.65-5.88-19.07-5.88-33.92s2-26,6-33.21c3.23-5.78,7.59-8.81,13.31-9.24-3.43,5.2-5,12.69-5,23.53,0,11,1.93,19.48,5.72,25.14s9.24,8.47,16.26,8.47a35.67,35.67,0,0,0,4.36-.25c-2.5,18.7-10.22,29.36-21.38,29.36Zm189.23-3.87c-2.89,0-5.25-2.82-7-8.39-2.17-6.85-3.27-17.54-3.27-31.75,0-33.77,4.94-38.42,10.28-38.42,4.66,0,10.87,4,10.87,38.42,0,35.37-5.5,40.14-10.87,40.14Z"/><path class="ab5a6866-53fe-4f93-bd9d-837072daf8e9" d="M1058.45,187.3c-12.31,0-20.29-3-30-11.38-6.12,7.65-15,11.38-27.07,11.38-15.78,0-24.82-10.16-24.82-27.88,0-14.58,6.49-24,16.53-24a12.86,12.86,0,0,1,4,.63V87.4c0-27.14,11.8-42.71,32.37-42.71a24.66,24.66,0,0,1,9,1.37,1,1,0,0,1,.46.42l.74,1.29a1,1,0,0,1,0,1c-.69,1.21-2.08,3.62-2.08,17.13V139c0,12.16-1.53,21.64-4.66,28.94,4,3.24,6.61,4.24,10.61,4.24,10.87,0,23.56-16.12,23.56-61.56,0-48.23-13.56-71.67-41.46-71.67-17.08,0-37,12.91-37,49.31V99a1,1,0,0,1-1,1c-13.4,0-21.72-9.94-21.72-25.94,0-26.47,24.73-43.57,63-43.57,25.38,0,45.25,7,59.05,20.93s20.8,33.88,20.8,59.4c0,21.42-5.82,41.21-16.39,55.74C1082.87,179.55,1070.21,187.3,1058.45,187.3Zm-65.84-41.71c-4.94,0-7.88,5-7.88,13.4,0,7.74,2.62,12.55,6.84,12.55,4.55,0,5.51-5.3,5.51-9.75V146.48A10.12,10.12,0,0,0,992.61,145.59Z"/><path d="M1028.86,31.5c50.45,0,78.85,28.59,78.85,79.33,0,46.44-26.78,75.47-49.26,75.47-11.84,0-19.68-2.58-30.19-11.83-5.77,7.74-14.5,11.83-26.92,11.83-16.72,0-23.82-11.61-23.82-26.88,0-13.76,5.91-23,15.53-23a12.4,12.4,0,0,1,5,1.07V87.4c0-29.67,13.76-41.71,31.37-41.71A23.86,23.86,0,0,1,1038,47l.74,1.29c-.74,1.29-2.22,3.65-2.22,17.63V139c0,12-1.48,21.71-4.88,29.24,4.43,3.65,7.25,4.94,11.83,4.94,12.73,0,24.56-19.35,24.56-62.56,0-52.68-16.12-72.67-42.46-72.67-19.68,0-38,15.48-38,50.31V99c-13.32,0-20.72-9.89-20.72-24.94,0-26.23,24.42-42.57,62-42.57m-37.29,141c4,0,6.51-3.44,6.51-10.75V145.88a10.6,10.6,0,0,0-5.47-1.29c-5.92,0-8.88,6-8.88,14.4,0,9,3.4,13.55,7.84,13.55m37.29-143c-18.92,0-34.9,4.08-46.22,11.8C971,49.22,964.86,60.56,964.86,74.07c0,16.62,8.71,26.94,22.72,26.94a2,2,0,0,0,2-2V88.26c0-35.66,19.4-48.31,36-48.31,13.14,0,22.76,5.12,29.42,15.65,7.33,11.59,11,30.1,11,55,0,41.84-11.33,60.56-22.56,60.56-3.58,0-5.87-.82-9.4-3.55,3-7.34,4.45-16.72,4.45-28.63V65.9c0-13.24,1.34-15.58,1.92-16.58l0-.06a2,2,0,0,0,0-2l-.74-1.29a2,2,0,0,0-.93-.83,25.47,25.47,0,0,0-9.38-1.46c-21.21,0-33.37,15.93-33.37,43.71v47.34a14.56,14.56,0,0,0-3-.32c-10.65,0-17.53,9.81-17.53,25,0,8.41,2.1,15.46,6.08,20.42,4.51,5.61,11.15,8.46,19.74,8.46,12,0,20.91-3.59,27.19-11,9.62,8.06,17.66,11,29.92,11,12.08,0,25-7.91,34.68-21.14,10.69-14.7,16.58-34.7,16.58-56.33,0-25.8-7.09-46-21.09-60.1s-34.11-21.23-59.76-21.23Zm-37.29,141c-3.6,0-5.84-4.43-5.84-11.55,0-2.91.5-12.4,6.88-12.4a9.8,9.8,0,0,1,3.47.55v14.65c0,4-.78,8.75-4.51,8.75Z"/><path class="ab5a6866-53fe-4f93-bd9d-837072daf8e9" d="M1602.9,228.15c-5.63,0-15.57-.85-18.91-6.52a1,1,0,0,1,.08-1.13c2.81-3.48,3.33-10.7,3.33-23.67V100.94c0-5.45-2.18-5.45-3-5.45-4.25,0-6.69,8.1-6.69,22.22v18.06c0,22.23-7.2,33-22,33l-2.7-.18c-7.21,12.22-18.19,18.67-31.77,18.67-20.1,0-35.36-9-43.33-25.51-3.5,16.48-15.06,25.51-32.86,25.51-18.18,0-28.07-7.52-32.54-25-6.54,16.57-20.06,25-40.25,25-25.56,0-43.17-12.5-49.86-35.26a16.47,16.47,0,0,1-14.65,8,29.53,29.53,0,0,1-5.39-.48c-6.13,19-17.55,27.79-35.89,27.79-26.68,0-40.21-16.25-40.21-48.3V106.53c0-4.64-1-10.18-5.65-10.18-6.39,0-7.73,10.45-7.73,19.21v17.2c0,36.19-15.12,54.54-44.94,54.54-33,0-52.78-21.35-52.78-57.12,0-34.43,19.44-56.68,49.52-56.68,21.83,0,33.85,11.81,33.85,33.25,0,24.43-15,38.54-44.61,41.95,1.88,21.6,10.11,26.06,21.86,26.06,19.38,0,29.62-14.52,29.62-42v-17.2c0-29.09,9.21-42.06,29.85-42.06,19.69,0,29.26,13.13,29.26,40.13v34.83c0,17,4.76,25.23,14.54,25.23,8,0,13.81-8.45,16.15-17-9.65-6.34-14.34-21.63-14.34-46.68,0-25.56,4-36.47,13.43-36.47,3.26,0,5.63.86,7.48,2.72,4.43,4.44,6.19,15.41,6.09,37.84a187.67,187.67,0,0,1-3.08,36.25,13.68,13.68,0,0,0,3,.37c9.69,0,11.72-10,11.72-18.35v-2.58s0-.09,0-.14c.21-34.09,19.64-56.11,49.52-56.11,21.83,0,33.85,11.81,33.85,33.25,0,24.43-15,38.54-44.61,41.95,1.88,21.6,10.1,26.06,21.86,26.06,19.38,0,29.62-14.52,29.62-42v-3s0-.09,0-.13l.14-76.84c0-29,9.84-43.78,29.26-43.78,17.52,0,24.67,12.87,24.67,44.43,0,29.39-6,50.74-17,60.23v34.15c0,17.61,4.65,21.15,12.16,21.15,8,0,12.61-6.85,12.61-18.78V129.75s0-.08,0-.12c.21-34.1,19.7-56.13,49.67-56.13,26.5,0,40.5,19.6,40.5,56.68,0,11.18-1.54,21-4.57,29.31,6.58-.23,13.08-3.77,13.08-25.22V115.56c0-27.91,9.84-42.06,29.26-42.06,12.72,0,20.17,6,23.18,19,4.78-12.91,13.39-19,26.82-19,18.54,0,37.25,16.2,37.25,52.38,0,24.61-7.52,42.27-21.22,50,21.4-1.6,29.43-11.46,29.43-35.63V109.11c0-23.63,9.35-35.61,27.78-35.61,13.22,0,21.38,6.22,24.87,19,4.83-13.09,13.9-19,29-19,13.76,0,22.18,6.35,25.64,19.4,5-13.36,14.33-19.62,29.1-19.62,18.11,0,28.08,13.42,28.08,37.77,0,6.37-.39,14.17-.8,22.44s-.83,16.82-.83,23.78c0,5.43,1.24,11.9,7.14,11.9,5.11,0,8.17-6.62,8.17-17.7V129.75a.71.71,0,0,1,0-.14c.21-34.09,19.64-56.11,49.52-56.11,21.82,0,33.84,11.81,33.84,33.25,0,24.43-15,38.54-44.6,41.95,1.88,21.6,10.1,26.06,21.85,26.06,19.39,0,29.63-14.52,29.63-42V113.41c0-26.85,10.59-39.91,32.36-39.91,14,0,22.12,6.61,25.18,20.74,5.44-13.91,15.13-21,28.83-21,21.57,0,29.25,18.85,29.25,36.48,0,4.91-.34,12.09-.7,19.7-.43,9.09-.92,19.39-.92,27.81,0,5.43,1.23,11.9,7.13,11.9,5.2,0,8.18-5.67,8.18-15.55V57.73a1,1,0,0,1,1-1c14,0,26.35-7,31.34-17.91a1,1,0,0,1,.91-.58h4a1,1,0,0,1,1,1V75.65h16a1,1,0,0,1,1,1v9a1,1,0,0,1-1,1h-16v68.23c0,12.45,3.58,14.05,6.7,14.05,5,0,5.51-6.67,5.51-9.54V156a1,1,0,0,1,1-1h5.47a1,1,0,0,1,1,1v3.87c0,18.73-8.4,27.45-26.45,27.45-13.73,0-22.42-5.17-27.12-16.21-4.44,10.76-13.52,16.21-27,16.21-25.83,0-30.88-15.9-30.88-43.36,0-4.59.32-11.07.65-17.93s.68-13.75.68-18.62c0-7.32-2.1-11-6.25-11-7.43,0-11.87,12.49-11.87,33.4v54.4a1,1,0,0,1-1,1h-36.25a1,1,0,0,1-1-1V103.52c0-5-2-8-5.36-8-6.85,0-7.88,11.23-7.88,17.92v19.35c0,36.19-15.12,54.54-44.94,54.54-21.8,0-37.68-8.9-46.15-25.79-2.79,16.66-12.47,25.79-27.53,25.79-22,0-32.66-14.18-32.66-43.36,0-4.59.32-11.07.66-17.93s.67-13.75.67-18.62c0-4.12-.77-11-5.95-11-4.14,0-9.65,2.86-9.65,27.6v60.2a1,1,0,0,1-1,1H1768a1,1,0,0,1-1-1v-77c0-11.22-3-12.76-6.25-12.76-6.32,0-9.8,10.41-9.8,29.31v60.42a1,1,0,0,1-1,1h-36.1a1,1,0,0,1-1-1V104c0-5.61-1.4-8.46-4.18-8.46-1.54,0-6.25,0-6.25,14.91v34.19c0,29.14-14.09,42.71-44.35,42.71-14.92,0-24.78-1.9-32.43-6.32v15.85C1625.65,212.32,1622.94,228.15,1602.9,228.15Zm-74-141.9c-12.84,0-18.82,14-18.82,43.93,0,30.27,6.45,44.37,20.3,44.37,5.59,0,10.17-2.7,13.64-8-10.3-4.94-15.52-17.6-15.52-37.64,0-21.06,8.07-32,16.12-33.85C1540.3,89.13,1535.15,86.25,1528.92,86.25Zm96.73,83.43a16,16,0,0,0,9.95,3.36c8,0,12.61-7,12.61-42.86,0-37.11-4.64-40.06-10.69-40.06-7.77,0-11.87,12.22-11.87,35.33Zm295-83.86c-5.62,0-9.36,5.86-9.36,34.47v17.19l4.36-1.17c8.21-2.3,12-10.33,11.84-25.25v-5C1927.54,88.28,1924.25,85.82,1920.7,85.82Zm-553.63,0c-5.62,0-9.36,5.86-9.36,34.47v17.19l4.37-1.17c8.2-2.3,12-10.33,11.83-25.25v-5C1373.91,88.28,1370.62,85.82,1367.07,85.82Zm-204.32,0c-5.62,0-9.36,5.86-9.36,34.47v17.19l4.37-1.17c8.2-2.3,12-10.33,11.83-25.25v-5C1169.59,88.28,1166.3,85.82,1162.75,85.82Zm287.32-59.13c-.86,0-3.15,0-3.15,6.31l-.14,65.94c5.73-7.66,9.09-24.69,9.09-46.59C1455.87,35.33,1453.92,26.69,1450.07,26.69Z"/><path d="M1439.12,10c15.38,0,23.67,9.67,23.67,43.43,0,26-4.88,49.66-17,59.77v34.61c0,16.13,3.84,22.15,13.16,22.15,8,0,13.61-6.45,13.61-19.78V129.75h0c.16-32.45,17.89-55.25,48.67-55.25,27.07,0,39.5,20.85,39.5,55.68,0,11.4-1.62,21.72-5,30.32h.74c9.91,0,14.8-7.1,14.8-26.23v-5.38h0V115.56c0-28.81,10.21-41.06,28.26-41.06,14,0,20.71,7.52,22.93,21.93,5-17.42,15.24-21.93,27.07-21.93,19.68,0,36.25,18.06,36.25,51.38,0,23.87-7.4,42.79-22.49,50.1v1.07c23.67-1.07,32.7-11,32.7-36.76V109.11c0-24.94,10.21-34.61,26.78-34.61,13.31,0,21.75,6.23,24.71,21.71,4.58-15.91,14.2-21.71,29.14-21.71,15.68,0,22.93,8.38,25.45,22.14,4.88-16.55,15.09-22.36,29.29-22.36,19.09,0,27.08,15.48,27.08,36.77,0,12.9-1.63,32.46-1.63,46.22,0,7.53,2.37,12.9,8.14,12.9s9.17-6.88,9.17-18.7V129.75h0c.16-33.72,19.05-55.25,48.52-55.25,22.19,0,32.84,12.25,32.84,32.25,0,23.43-14.35,37.84-44.68,41.06,1.63,21.29,9.18,27.95,22.93,27.95,17.31,0,30.63-11.39,30.63-43v-3h0V113.41c0-29.88,13-38.91,31.36-38.91,15.24,0,22.64,8.17,24.86,23.65,5.62-17.85,16.42-23.87,29.15-23.87,19.82,0,28.25,16.77,28.25,35.48,0,10.75-1.62,32-1.62,47.51,0,7.53,2.36,12.9,8.13,12.9s9.18-6,9.18-16.55V129.75h0v-72c14,0,26.92-6.88,32.25-18.49h4V76.65h17v9h-17v69.23c0,10.53,2.52,15.05,7.7,15.05,4.14,0,6.51-3.87,6.51-10.54V156h5.47v3.87c0,17.63-7.54,26.45-25.45,26.45-13.84,0-22.72-5.31-27.14-18.05-3.95,12.2-13.26,18.05-27,18.05-23.82,0-29.88-13.33-29.88-42.36,0-9.24,1.33-26.87,1.33-36.55,0-7.74-2.37-12-7.25-12-7.1,0-12.87,9.89-12.87,34.4v54.4h-36.25V103.52c0-5.59-2.37-9-6.36-9-5.62,0-8.88,6.24-8.88,18.92v16.34h0v3c0,34-13,53.54-43.94,53.54-23.81,0-39.29-10.9-46.68-28.33-2,18.93-12,28.33-27,28.33-20.86,0-31.66-12.9-31.66-42.36,0-9.24,1.33-26.87,1.33-36.55,0-7.74-2.51-12-6.95-12-5.47,0-10.65,4.52-10.65,28.6v60.2H1768v-77c0-9.46-2.07-13.76-7.25-13.76-6.36,0-10.8,8.81-10.8,30.31v60.42h-36.1V104c0-6-1.63-9.46-5.18-9.46-4.73,0-7.25,5-7.25,15.91v19.35h0v14.84c0,29.45-14.2,41.71-43.35,41.71-15.09,0-25.44-1.94-33.43-7.1v17.63c0,18.49-4.59,30.32-21.75,30.32-7.55,0-15.39-1.51-18.05-6,3-3.66,3.55-10.75,3.55-24.3V100.94q0-6.45-4-6.45c-4.73,0-7.69,7.31-7.69,23.22v18.06c0,22.79-7.54,32-21,32l-3.25-.22c-6.66,11.61-17,18.71-31.22,18.71-21.39,0-36.47-10.09-43.74-27.91-2.39,16.86-12.78,27.91-32.45,27.91-16.89,0-28-6.46-32.34-27.54-5.68,17.74-18.59,27.54-40.45,27.54-27.51,0-43.89-14.54-49.54-36.9-3.09,6.42-8.26,9.59-15,9.59a28.15,28.15,0,0,1-6.07-.64c-6.06,19.56-17.6,28-35.21,28-26,0-39.21-15.48-39.21-47.3V106.53c0-7.09-2.21-11.18-6.65-11.18-4.89,0-8.73,5.16-8.73,20.21v14.19h0v3c0,34-13,53.54-43.94,53.54-34.77,0-51.78-23.22-51.78-56.12,0-34,18.93-55.68,48.52-55.68,22.2,0,32.85,12.25,32.85,32.25,0,23.43-14.35,37.84-44.68,41.06,1.62,21.29,9.17,27.95,22.93,27.95,17.31,0,30.62-11.39,30.62-43v-3h0V115.56c0-29.67,9.77-41.06,28.85-41.06,19.68,0,28.26,13.54,28.26,39.13v34.83c0,17.63,5,26.23,15.54,26.23,8.58,0,14.94-9,17.31-18.49-9.62-5.81-14.5-20.64-14.5-46.23,0-29.24,5.47-35.47,12.43-35.47,8.72,0,12.72,6.23,12.57,39.56,0,14.83-1.18,27.09-3.25,37a15.38,15.38,0,0,0,4.14.64c8.58,0,12.72-7.09,12.72-19.35v-2.58h0C1320.63,96,1339.53,74.5,1369,74.5c22.19,0,32.85,12.25,32.85,32.25,0,23.43-14.36,37.84-44.68,41.06,1.62,21.29,9.17,27.95,22.93,27.95,17.31,0,30.62-11.39,30.62-43v-3h0l.14-77c0-27.95,9.17-42.78,28.26-42.78m6.66,91.59c6.8-6.45,11.09-24.08,11.09-49.24,0-20.42-2.81-26.66-6.8-26.66-2.81,0-4.15,2.37-4.15,7.31l-.14,68.59m464.56,37.19,5.62-1.5c8.43-2.37,12.72-10.32,12.58-26.23v-5c0-16.77-2.82-21.28-7.84-21.28-7,0-10.36,7.74-10.36,35.47v18.49m-553.63,0,5.62-1.5c8.44-2.37,12.73-10.32,12.58-26.23v-5c0-16.77-2.81-21.28-7.84-21.28-7,0-10.36,7.74-10.36,35.47v18.49m-204.32,0,5.63-1.5c8.43-2.37,12.72-10.32,12.57-26.23v-5c0-16.77-2.81-21.28-7.84-21.28-7,0-10.36,7.74-10.36,35.47v18.49m378,36.77c6.22,0,11.39-3.23,15.09-9.46-9.32-3.87-16-14.41-16-37.2,0-21.28,8.28-32.46,16.86-33.11-4.59-6.88-10.35-10.53-17.46-10.53-13,0-19.82,13.11-19.82,44.93s7.25,45.37,21.3,45.37M1635.6,174c9,0,13.61-7.95,13.61-43.86,0-35-3.85-41.06-11.69-41.06-8.14,0-12.87,11.61-12.87,36.33v44.72A17,17,0,0,0,1635.6,174M1439.12,8c-10.14,0-17.87,4-23,11.82-4.84,7.45-7.29,18.54-7.29,33l-.14,76.78c0,.07,0,.13,0,.19v3c0,14.42-2.82,25.22-8.37,32.1-4.78,5.91-11.59,8.9-20.25,8.9-11,0-18.8-4.17-20.77-24.18,14.4-1.8,25.47-6.26,32.92-13.26,7.69-7.23,11.6-17.18,11.6-29.57,0-22.09-12.38-34.25-34.85-34.25-30.47,0-50.28,22.39-50.52,57.06,0,.06,0,.13,0,.19v2.58c0,11.52-3.61,17.35-10.72,17.35a10.8,10.8,0,0,1-1.8-.16,190.88,190.88,0,0,0,2.91-35.46c.1-23-1.69-33.83-6.38-38.55-2-2.05-4.65-3-8.19-3-10.12,0-14.43,11.21-14.43,37.47,0,24.89,4.64,40.33,14.18,47.1-2.3,7.76-7.77,15.62-15,15.62-5.81,0-13.54-2.51-13.54-24.23V113.63c0-13.55-2.32-23.46-7.11-30.31-5-7.18-12.81-10.82-23.15-10.82-10.54,0-18.13,3.34-23.19,10.22s-7.66,17.74-7.66,32.84v17.2c0,14.42-2.81,25.22-8.37,32.1-4.78,5.91-11.59,8.9-20.25,8.9-11,0-18.8-4.17-20.77-24.18,14.4-1.8,25.47-6.26,32.92-13.26,7.7-7.23,11.6-17.18,11.6-29.57,0-22.09-12.38-34.25-34.85-34.25-30.69,0-50.52,22.64-50.52,57.68,0,36.39,20.1,58.12,53.78,58.12,30.48,0,45.94-18.69,45.94-55.54v-17.2c0-6.8.87-18.21,6.73-18.21,3.85,0,4.65,5,4.65,9.18V139c0,32.71,13.87,49.3,41.21,49.3,9.47,0,17-2.31,23.16-7.06,5.9-4.58,10.29-11.33,13.41-20.6a31.54,31.54,0,0,0,4.71.35,17.33,17.33,0,0,0,14.3-6.71c7.24,22,24.91,34,50.21,34,19.56,0,33-7.73,40.06-23,4.94,15.84,15.24,23,32.73,23s29-8.35,33.2-23.67c8.42,15.32,23.47,23.67,43,23.67,13.76,0,24.91-6.44,32.31-18.63l2,.13h.13c7.59,0,13.38-2.81,17.2-8.34s5.81-14.06,5.81-25.7V117.71c0-15.64,2.94-21.22,5.69-21.22.55,0,2,0,2,4.45v95.89c0,12.45-.5,19.81-3.11,23a2,2,0,0,0-.16,2.27c3.59,6.1,13.93,7,19.77,7,21,0,23.75-17.27,23.75-32.32V182.67c7.59,3.92,17.27,5.63,31.43,5.63,30.94,0,45.35-13.89,45.35-43.71V110.4c0-9.23,1.77-13.91,5.25-13.91,2.11,0,3.18,2.51,3.18,7.46v80.2a2,2,0,0,0,2,2H1750a2,2,0,0,0,2-2V123.73c0-18,3.21-28.31,8.8-28.31,1.84,0,5.25,0,5.25,11.76v77a2,2,0,0,0,2,2h36.25a2,2,0,0,0,2-2V124c0-26.6,6.51-26.6,8.65-26.6,4.31,0,4.95,6.29,4.95,10,0,4.85-.34,11.82-.67,18.57s-.66,13.36-.66,18c0,29.85,11,44.36,33.66,44.36,14.76,0,24.52-8.41,28-23.85a45,45,0,0,0,15.14,15.91c8.34,5.27,18.63,7.94,30.56,7.94,30.49,0,45.94-18.69,45.94-55.54V113.41c0-6.32.9-16.92,6.88-16.92,3.94,0,4.36,4.92,4.36,7v80.63a2,2,0,0,0,2,2h36.25a2,2,0,0,0,2-2v-54.4c0-11.29,1.22-19.91,3.62-25.61,1.3-3.1,3.61-6.79,7.25-6.79,3.48,0,5.25,3.38,5.25,10,0,4.85-.34,11.82-.67,18.57s-.66,13.36-.66,18c0,16.15,2,26.37,6.33,33.15,4.94,7.65,13.06,11.21,25.55,11.21,12.89,0,22.14-5.1,27-14.82,5,10.08,13.78,14.82,27.12,14.82,18.47,0,27.45-9.31,27.45-28.45V156a2,2,0,0,0-2-2h-5.47a2,2,0,0,0-2,2v3.44c0,2.57-.44,8.54-4.51,8.54-1.71,0-5.7,0-5.7-13.05V87.68h15a2,2,0,0,0,2-2v-9a2,2,0,0,0-2-2h-15V39.24a2,2,0,0,0-2-2h-4a2,2,0,0,0-1.82,1.17c-4.83,10.52-16.77,17.32-30.43,17.32a2,2,0,0,0-2,2v95.89c0,4.37-.7,14.55-7.18,14.55-5.07,0-6.13-5.93-6.13-10.9,0-8.39.49-18.68.92-27.76.36-7.62.7-14.82.7-19.75,0-10.37-2.44-19.33-7.05-25.9-5.32-7.57-13.34-11.58-23.2-11.58-13.23,0-22.82,6.33-28.6,18.84-3.65-12.51-12-18.62-25.41-18.62-22.45,0-33.36,13.38-33.36,40.91v19.35c0,14.42-2.82,25.22-8.38,32.1-4.77,5.91-11.58,8.9-20.25,8.9-11,0-18.8-4.17-20.77-24.18,14.4-1.8,25.47-6.26,32.93-13.26,7.69-7.23,11.59-17.18,11.59-29.57,0-22.09-12.37-34.25-34.84-34.25-30.47,0-50.29,22.39-50.52,57.06a1.21,1.21,0,0,0,0,.19v21.72c0,10.46-2.68,16.7-7.17,16.7-5.08,0-6.14-5.93-6.14-10.9,0-6.94.42-15.48.83-23.73s.8-16.1.8-22.49c0-11.59-2.26-20.84-6.72-27.48-5-7.49-12.55-11.29-22.36-11.29-14.25,0-23.59,5.64-29,17.63-4-11.7-12.48-17.41-25.78-17.41-14.53,0-23.65,5.3-28.85,17-4-11.42-12.23-17-25-17-19.1,0-28.78,12.32-28.78,36.61v31.18c0,22.19-6.54,31.77-24.45,34.21,5.23-3.91,9.41-9.46,12.49-16.57,3.82-8.81,5.75-19.59,5.75-32.05,0-16.18-3.86-29.8-11.15-39.4-6.86-9-16.48-14-27.1-14-12.91,0-21.51,5.38-26.63,16.81-3.53-11.43-11.09-16.81-23.37-16.81-20.08,0-30.26,14.49-30.26,43.06v18.71c0,18.95-4.87,23.36-10.63,24.1,2.74-8.07,4.12-17.54,4.12-28.19,0-37.73-14.35-57.68-41.5-57.68-15.44,0-28.35,5.59-37.34,16.16-8.61,10.12-13.22,24.26-13.33,40.91,0,.06,0,.12,0,.18v20.43c0,11.3-4.23,17.78-11.61,17.78-6.89,0-11.16-3.37-11.16-20.15v-33.7c14.78-13.2,17-43.57,17-60.68,0-32.27-7.44-45.43-25.67-45.43Zm8.67,87.47.13-62.46c0-5.32,1.56-5.32,2.15-5.32,1.12,0,4.8,1.78,4.8,24.66,0,19.28-2.59,34.7-7.08,43.12Zm464.55,40.71V120.29c0-29.42,4-33.47,8.36-33.47,1.89,0,5.84,0,5.84,19.28v5c.17,18.94-6.26,22.94-11.12,24.3l-3.08.83Zm-553.63,0V120.29c0-29.42,4-33.47,8.36-33.47,1.89,0,5.84,0,5.84,19.28v5c.17,18.94-6.26,22.94-11.12,24.3l-3.08.83Zm-204.32,0V120.29c0-29.42,4-33.47,8.36-33.47,1.9,0,5.84,0,5.84,19.28v5c.18,18.94-6.26,22.94-11.11,24.3l-3.09.83Zm376,37.37c-8.28,0-19.3-4.5-19.3-43.37,0-38.48,10.17-42.93,17.82-42.93,5.47,0,10.07,2.37,14,7.23-8.11,2.81-15.42,13.88-15.42,34.41,0,19.79,5.06,32.56,15,38-3.19,4.41-7.27,6.65-12.17,6.65Zm96.25-4.37V125.45c0-22.14,3.86-34.33,10.87-34.33,5.49,0,9.69,2.88,9.69,39.06,0,38.66-5.5,41.86-11.61,41.86a14.74,14.74,0,0,1-8.95-2.86Z"/></svg>