<svg id="f6f92267-0dba-4df5-ad5f-f07b260b8499" data-name="svg5" xmlns="http://www.w3.org/2000/svg" xmlns:xlink="http://www.w3.org/1999/xlink" viewBox="0 0 244.44 261.49"><defs><style>.e5175057-0a9b-4fde-b28f-b4d76fb673f8{fill:#202225;}.a23adb71-94a4-419d-b06b-679025908cbc,.ff13bbdb-0679-4efa-b213-327f8bd4b779{fill:none;stroke:#202225;stroke-width:11.34px;}.a23adb71-94a4-419d-b06b-679025908cbc{stroke-miterlimit:11.34;}.ff13bbdb-0679-4efa-b213-327f8bd4b779{stroke-linejoin:round;}.a2d92c78-8ca9-4ec6-b7a3-53cf078777ba{fill:#759834;}.a1988794-ca79-4c69-97f8-ed9e7deefb1e{fill:#fff;}.e7ad2bc5-2774-4085-a00b-864f3b7f4b79{fill:url(#b78787cf-6661-4c79-8f5d-2e32381d3fd6);}</style><linearGradient id="b78787cf-6661-4c79-8f5d-2e32381d3fd6" x1="195.94" y1="-4.35" x2="31.68" y2="159.91" gradientUnits="userSpaceOnUse"><stop offset="0" stop-color="#8a2387"/><stop offset="0.5" stop-color="#e94057"/><stop offset="1" stop-color="#f27121"/></linearGradient></defs><g id="b0405723-5fd1-4b4a-9cd4-b0ebd1ec55fa" data-name="path18284"><path class="e5175057-0a9b-4fde-b28f-b4d76fb673f8" d="M134.69,255.82a6.73,6.73,0,0,1-4.81-2.2l-.38-.35C115.81,240.76,104,228.57,98.66,206c-4.62-19.4-.16-30.35,4.39-36.12A22.86,22.86,0,0,1,121.34,161a27.1,27.1,0,0,1,22.2,12.09c3.84,5.6,9.17,17.81,1.86,36.65l-.06.14c-6.39,15.3-8.23,28.52-5.16,37.22a6.47,6.47,0,0,1-.57,6.17,6.06,6.06,0,0,1-4.92,2.54Z"/></g><g id="a1f49e96-8f05-42b2-9c1d-037aced8fc0e" data-name="path18286"><path class="e5175057-0a9b-4fde-b28f-b4d76fb673f8" d="M130.46,250.89a6,6,0,0,1-5.1-2.84l-31-50.2a6,6,0,0,1,.1-6.47l17.93-27.06a6,6,0,0,1,11,3.77c0,.21-1.56,21,.4,32,2.37,13.28,12.31,42.61,12.41,42.9a6,6,0,0,1-5.68,7.93Z"/></g><g id="e0ad7063-e3ca-4891-96d6-ee88ed7f1dc6" data-name="path18288"><path class="e5175057-0a9b-4fde-b28f-b4d76fb673f8" d="M134.69,255.82a6.73,6.73,0,0,1-4.81-2.2l-.38-.35C115.81,240.76,104,228.57,98.66,206c-4.62-19.4-.16-30.35,4.39-36.12A22.86,22.86,0,0,1,121.34,161a27.1,27.1,0,0,1,22.2,12.09c3.84,5.6,9.17,17.81,1.86,36.65l-.06.14c-6.39,15.3-8.23,28.52-5.16,37.22a6.47,6.47,0,0,1-.57,6.17,6.06,6.06,0,0,1-4.92,2.54Z"/><path class="a23adb71-94a4-419d-b06b-679025908cbc" d="M134.69,255.82a6.73,6.73,0,0,1-4.81-2.2l-.38-.35C115.81,240.76,104,228.57,98.66,206c-4.62-19.4-.16-30.35,4.39-36.12A22.86,22.86,0,0,1,121.34,161a27.1,27.1,0,0,1,22.2,12.09c3.84,5.6,9.17,17.81,1.86,36.65l-.06.14c-6.39,15.3-8.23,28.52-5.16,37.22a6.47,6.47,0,0,1-.57,6.17,6.06,6.06,0,0,1-4.92,2.54Z"/></g><g id="bad79f4d-5e0c-4a88-8df1-1fe1e6b69c7c" data-name="path18030"><path class="e5175057-0a9b-4fde-b28f-b4d76fb673f8" d="M12.71,218.43a6.06,6.06,0,0,1-5.15-2.9,6.55,6.55,0,0,1,.2-6.76l.23-.46c8.45-16.5,17.11-31.07,37.49-42.24,9-4.93,17.38-7.43,24.92-7.43,16.62,0,25.32,12.14,25.32,24.14a28.16,28.16,0,0,1-9.16,20.49c-4.54,4.2-12.79,9.21-26.32,9.21a57.52,57.52,0,0,1-6.07-.33H54a102.13,102.13,0,0,0-13.07-.9c-10.55,0-18.69,1.93-24.19,5.75a6.8,6.8,0,0,1-4,1.44Z"/></g><g id="fab7cd79-f38d-46b8-93ad-f9d0cbcac126" data-name="path18032"><path class="e5175057-0a9b-4fde-b28f-b4d76fb673f8" d="M16.33,213a6,6,0,0,1-4.39-10.09l40.21-43.21a6,6,0,0,1,4.39-1.91,6.11,6.11,0,0,1,1.88.3l30.83,10.15a6,6,0,0,1-.73,11.59c-.2,0-20.68,4-30.73,8.83C45.61,194.48,20,211.82,19.69,212A6,6,0,0,1,16.33,213Z"/></g><g id="eb8ae49e-06c4-4a15-8ddf-218f737d3db0" data-name="path18034"><path class="e5175057-0a9b-4fde-b28f-b4d76fb673f8" d="M12.71,218.43a6.06,6.06,0,0,1-5.15-2.9,6.55,6.55,0,0,1,.2-6.76l.23-.46c8.45-16.5,17.11-31.07,37.49-42.24,9-4.93,17.38-7.43,24.92-7.43,16.62,0,25.32,12.14,25.32,24.14a28.16,28.16,0,0,1-9.16,20.49c-4.54,4.2-12.79,9.21-26.32,9.21a57.52,57.52,0,0,1-6.07-.33H54a102.13,102.13,0,0,0-13.07-.9c-10.55,0-18.69,1.93-24.19,5.75a6.8,6.8,0,0,1-4,1.44Z"/><path class="a23adb71-94a4-419d-b06b-679025908cbc" d="M12.71,218.43a6.06,6.06,0,0,1-5.15-2.9,6.55,6.55,0,0,1,.2-6.76l.23-.46c8.45-16.5,17.11-31.07,37.49-42.24,9-4.93,17.38-7.43,24.92-7.43,16.62,0,25.32,12.14,25.32,24.14a28.16,28.16,0,0,1-9.16,20.49c-4.54,4.2-12.79,9.21-26.32,9.21a57.52,57.52,0,0,1-6.07-.33H54a102.13,102.13,0,0,0-13.07-.9c-10.55,0-18.69,1.93-24.19,5.75a6.8,6.8,0,0,1-4,1.44Z"/></g><g id="ae55e0c0-1644-469d-b86e-737742540080" data-name="path18036"><path class="e5175057-0a9b-4fde-b28f-b4d76fb673f8" d="M231.72,220.1a6.67,6.67,0,0,1-4.2-1.6c-7.39-5.53-18.86-6.69-27.19-6.69-3.12,0-6.44.16-9.87.48h-.15c-1.36.09-2.71.13-4,.13h0c-14.8,0-26.71-5.93-32.69-16.29-4.81-8.33-5-18.37-.48-26.19,4.31-7.47,12.23-11.75,21.73-11.75,7.85,0,16.54,2.81,25.85,8.37,20,11.9,28.07,26.78,35.91,43.59l.21.46a6.55,6.55,0,0,1,0,6.67A6.06,6.06,0,0,1,231.72,220.1Z"/></g><g id="ffb10c9e-2214-4805-9f06-b18df48d9efd" data-name="path18038"><path class="e5175057-0a9b-4fde-b28f-b4d76fb673f8" d="M225.61,212.61a6,6,0,0,1-3.52-1.14c-.25-.18-25.35-18.32-37.35-24.5-9.89-5.09-30.23-9.75-30.43-9.8a6,6,0,0,1-.36-11.6l31.13-9.17a5.83,5.83,0,0,1,1.7-.25,6,6,0,0,1,4.52,2.06l38.83,44.45a6,6,0,0,1-4.52,10Z"/></g><g id="eb6c1834-2782-44b2-90c2-01782b0c3bc2" data-name="path18040"><path class="e5175057-0a9b-4fde-b28f-b4d76fb673f8" d="M231.72,220.1a6.67,6.67,0,0,1-4.2-1.6c-7.39-5.53-18.86-6.69-27.19-6.69-3.12,0-6.44.16-9.87.48h-.15c-1.36.09-2.71.13-4,.13h0c-14.8,0-26.71-5.93-32.69-16.29-4.81-8.33-5-18.37-.48-26.19,4.31-7.47,12.23-11.75,21.73-11.75,7.85,0,16.54,2.81,25.85,8.37,20,11.9,28.07,26.78,35.91,43.59l.21.46a6.55,6.55,0,0,1,0,6.67A6.06,6.06,0,0,1,231.72,220.1Z"/><path class="a23adb71-94a4-419d-b06b-679025908cbc" d="M231.72,220.1a6.67,6.67,0,0,1-4.2-1.6c-7.39-5.53-18.86-6.69-27.19-6.69-3.12,0-6.44.16-9.87.48h-.15c-1.36.09-2.71.13-4,.13h0c-14.8,0-26.71-5.93-32.69-16.29-4.81-8.33-5-18.37-.48-26.19,4.31-7.47,12.23-11.75,21.73-11.75,7.85,0,16.54,2.81,25.85,8.37,20,11.9,28.07,26.78,35.91,43.59l.21.46a6.55,6.55,0,0,1,0,6.67A6.06,6.06,0,0,1,231.72,220.1Z"/></g><g id="a0260cbe-dd46-44c6-895c-8e3083316774" data-name="path84-5-3-3-0-2"><path class="e5175057-0a9b-4fde-b28f-b4d76fb673f8" d="M103.08,193.83c-30.14,0-62.23-24-65.95-77.75a.76.76,0,0,1,0-.15c-1.27-29-7.26-68-28.57-89.66-1.3-1.31-4-4-2.39-7.86a6.11,6.11,0,0,1,5.67-3.73,12.29,12.29,0,0,1,3.9.85l2.28.71C30,20,39.7,23,50.75,27.56L82.26,6.67a6,6,0,0,1,6.24-.24l39.1,21.8c9-6.72,20.58-16.27,20.71-16.37a6,6,0,0,1,6.88-.52l31.91,19c12.41-5.44,25.24-9.75,40.42-14.46l1.19-.38a13.21,13.21,0,0,1,3.7-.85h.2a6.1,6.1,0,0,1,5.67,3.73c1.6,3.82-1.09,6.55-2.38,7.86C214.59,47.88,208.6,87,207.32,115.92v.15c-3.73,53.71-35.81,77.75-65.95,77.75a53.82,53.82,0,0,1-19.14-3.5A53.7,53.7,0,0,1,103.08,193.83Z"/></g><g id="acabde40-9add-49cf-9911-e58dd687d529" data-name="path28806"><path class="e5175057-0a9b-4fde-b28f-b4d76fb673f8" d="M134.22,111.91c-.23,0-.46,0-.68,0a6,6,0,0,1-4.63-3.16L117.57,87.24a6,6,0,0,1,1.05-7c1.26-1.27,31.18-31.29,50.16-42.15,17.51-10,57.89-20.91,59.6-21.37a6,6,0,0,1,4.94,10.74c-.42.29-42.31,29-56.65,42.46-17.29,16.21-37.71,39.71-37.92,40A6,6,0,0,1,134.22,111.91Z"/></g><g id="a5db80c2-460c-4e9e-bfef-6f856404db10" data-name="path84-5-3-3-0"><path class="e5175057-0a9b-4fde-b28f-b4d76fb673f8" d="M141.37,193.82a53.2,53.2,0,0,1-21.59-4.52,6,6,0,0,1,0-11,34,34,0,0,0,19.55-23.25c4.31-17.42-3.44-39.94-21.83-63.4a6,6,0,0,1,0-7.41l1-1.3c32.64-40.89,68.67-54.58,109-67.08l1.18-.38a13.66,13.66,0,0,1,3.7-.85h.21a6.1,6.1,0,0,1,5.67,3.73c1.6,3.82-1.09,6.55-2.38,7.86C214.59,47.89,208.6,87,207.32,115.92v.15C203.59,169.78,171.51,193.82,141.37,193.82Z"/><path class="a23adb71-94a4-419d-b06b-679025908cbc" d="M141.37,193.82a53.2,53.2,0,0,1-21.59-4.52,6,6,0,0,1,0-11,34,34,0,0,0,19.55-23.25c4.31-17.42-3.44-39.94-21.83-63.4a6,6,0,0,1,0-7.41l1-1.3c32.64-40.89,68.67-54.58,109-67.08l1.18-.38a13.66,13.66,0,0,1,3.7-.85h.21a6.1,6.1,0,0,1,5.67,3.73c1.6,3.82-1.09,6.55-2.38,7.86C214.59,47.89,208.6,87,207.32,115.92v.15C203.59,169.78,171.51,193.82,141.37,193.82Z"/></g><g id="a4867337-2817-4825-b18d-a82aa3c397e7" data-name="path27346"><path class="e5175057-0a9b-4fde-b28f-b4d76fb673f8" d="M135.46,171.54a6,6,0,0,1-5.36-8.71c.26-1,2.35-12.22-18.25-45.68C89.83,81.39,38.37,46.23,19,33c-2.81-1.93-5-3.45-6.61-4.57-2.32-1.67-5.83-4.19-4.48-8.55a6.07,6.07,0,0,1,5.84-4.28,7.32,7.32,0,0,1,2.14.34c53.19,15.84,95.55,47.27,107.44,63.53,25.3,34.58,35,60.67,28.69,77.52-3.48,9.38-11.19,13.46-15.2,14.39A5.66,5.66,0,0,1,135.46,171.54Z"/></g><g id="aba0bbf7-88ae-48d3-9360-38d2e9104002" data-name="path84-5-4-0"><path class="e5175057-0a9b-4fde-b28f-b4d76fb673f8" d="M103.08,193.83c-30.14,0-62.23-24.05-65.95-77.75a.76.76,0,0,1,0-.15c-1.28-29-7.27-68-28.58-89.66-1.29-1.31-4-4-2.38-7.86a6.11,6.11,0,0,1,5.67-3.73,12.29,12.29,0,0,1,3.9.85l1.19.38C57.25,28.41,93.28,42.1,125.91,83c33.82,42.37,28.16,70.93,21.78,84.18-7.92,16.44-25,26.66-44.61,26.66Z"/><path class="a23adb71-94a4-419d-b06b-679025908cbc" d="M103.08,193.83c-30.14,0-62.23-24.05-65.95-77.75a.76.76,0,0,1,0-.15c-1.28-29-7.27-68-28.58-89.66-1.29-1.31-4-4-2.38-7.86a6.11,6.11,0,0,1,5.67-3.73,12.29,12.29,0,0,1,3.9.85l1.19.38C57.25,28.41,93.28,42.1,125.91,83c33.82,42.37,28.16,70.93,21.78,84.18-7.92,16.44-25,26.66-44.61,26.66Z"/></g><g id="fb81bfd9-3c80-41f5-8577-b6f0362113be" data-name="path30185"><path class="e5175057-0a9b-4fde-b28f-b4d76fb673f8" d="M109.65,51a6,6,0,0,1-3.27-1L72.82,28.26A6,6,0,0,1,73.07,18L91.44,7.35a6.05,6.05,0,0,1,3-.81,5.94,5.94,0,0,1,3.22.94l31.5,20.06a6,6,0,0,1,.4,9.84L113.27,49.76A6,6,0,0,1,109.65,51Z"/></g><g id="ef4c518b-0d77-4886-9c46-8c2441a49e33" data-name="path13322-6-9"><path class="e5175057-0a9b-4fde-b28f-b4d76fb673f8" d="M91.72,63.37a6,6,0,0,1-3.67-1.26,167.45,167.45,0,0,0-39-22.23,6,6,0,0,1-1-10.54L82.26,6.67a6,6,0,0,1,6.24-.24L131,30.12a6,6,0,0,1,.6,10.1c-1,.73-2,1.43-2.87,2C118.4,49.3,99.84,60,96.22,62.07a6.56,6.56,0,0,1-1.08.48l-1.51.51A6.31,6.31,0,0,1,91.72,63.37Z"/><path class="ff13bbdb-0679-4efa-b213-327f8bd4b779" d="M91.72,63.37a6,6,0,0,1-3.67-1.26,167.45,167.45,0,0,0-39-22.23,6,6,0,0,1-1-10.54L82.26,6.67a6,6,0,0,1,6.24-.24L131,30.12a6,6,0,0,1,.6,10.1c-1,.73-2,1.43-2.87,2C118.4,49.3,99.84,60,96.22,62.07a6.56,6.56,0,0,1-1.08.48l-1.51.51A6.31,6.31,0,0,1,91.72,63.37Z"/></g><g id="a6a14100-cbfa-4347-bd88-955d2d5f608b" data-name="path29917"><path class="e5175057-0a9b-4fde-b28f-b4d76fb673f8" d="M169.08,53a6,6,0,0,1-3.26-1L132.26,30.32a6,6,0,0,1,.24-10.22L150.88,9.42a5.94,5.94,0,0,1,3-.82,6,6,0,0,1,3.22.94l31.5,20.06a6,6,0,0,1,.4,9.84L172.71,51.82A6,6,0,0,1,169.08,53Z"/></g><g id="e6898b52-d12c-4666-990c-621900f98a32" data-name="path14185-7"><path class="e5175057-0a9b-4fde-b28f-b4d76fb673f8" d="M122.22,94a6,6,0,0,1-4.72-2.3l-1-1.29a167.39,167.39,0,0,0-28.17-28.1,6,6,0,0,1,.71-10c.22-.13,22-12.58,32.92-20,8.49-5.81,26.18-20.34,26.36-20.48a6,6,0,0,1,6.88-.52L189.77,32a6,6,0,0,1-.59,10.62c-25,11.37-43.92,26.14-61.27,47.89l-1,1.23a6,6,0,0,1-4.72,2.3Z"/><path class="ff13bbdb-0679-4efa-b213-327f8bd4b779" d="M122.22,94a6,6,0,0,1-4.72-2.3l-1-1.29a167.39,167.39,0,0,0-28.17-28.1,6,6,0,0,1,.71-10c.22-.13,22-12.58,32.92-20,8.49-5.81,26.18-20.34,26.36-20.48a6,6,0,0,1,6.88-.52L189.77,32a6,6,0,0,1-.59,10.62c-25,11.37-43.92,26.14-61.27,47.89l-1,1.23a6,6,0,0,1-4.72,2.3Z"/></g><path id="a3da2908-149a-446a-9dcc-ef728ec2f514" data-name="path18284" class="a2d92c78-8ca9-4ec6-b7a3-53cf078777ba" d="M133.55,248.84c5,4.54-8.37-6.26,6.26-41.26,18.43-47.47-48.7-59.21-35.32-3,5,21.07,15.89,32.24,29.06,44.27Z"/><path id="e8d941f5-09fc-40de-9ae5-b0041d3d7692" data-name="path18286" class="a1988794-ca79-4c69-97f8-ed9e7deefb1e" d="M130.46,244.89S120.3,215,117.82,201.11c-2.11-11.84-.48-33.47-.48-33.47L99.41,194.69Z"/><path id="f5bd1f07-bdc7-488f-bc7e-2f2192ece29c" data-name="path18288" class="a23adb71-94a4-419d-b06b-679025908cbc" d="M133.55,248.84c5,4.54-8.37-6.26,6.26-41.26,18.43-47.47-48.7-59.21-35.32-3,5,21.07,15.89,32.24,29.06,44.27Z"/><path id="f350b7c8-1d6b-4522-a6ea-124aad1babbb" data-name="path18030" class="a2d92c78-8ca9-4ec6-b7a3-53cf078777ba" d="M13.33,211.05c-3.06,6,3.83-9.72,41.46-4.86,50.65,5.24,44.23-62.61-6.43-34.86C29.37,181.74,21.46,195.17,13.33,211.05Z"/><path id="adbc79f6-9db9-46e8-a0be-38b10bee65d5" data-name="path18032" class="a1988794-ca79-4c69-97f8-ed9e7deefb1e" d="M16.33,207s26.14-17.7,38.88-23.76c10.87-5.16,32.17-9.3,32.17-9.3L56.54,163.82Z"/><path id="b5b85640-5c92-4f5b-ad18-68a58afb568e" data-name="path18034" class="a23adb71-94a4-419d-b06b-679025908cbc" d="M13.33,211.05c-3.06,6,3.83-9.72,41.46-4.86,50.65,5.24,44.23-62.61-6.43-34.86C29.37,181.74,21.46,195.17,13.33,211.05Z"/><path id="afc3666a-97c7-40a0-8ff1-5c65c33e6263" data-name="path18036" class="a2d92c78-8ca9-4ec6-b7a3-53cf078777ba" d="M231.16,212.69c2.84,6.1-3.47-9.85-41.25-6.38-50.8,3.38-41.9-64.19,7.71-34.59C216.21,182.81,223.62,196.53,231.16,212.69Z"/><path id="ae00e6d8-9e51-49d8-a4a0-a5139541f420" data-name="path18038" class="a1988794-ca79-4c69-97f8-ed9e7deefb1e" d="M225.61,206.61s-25.57-18.51-38.12-25c-10.7-5.51-31.85-10.32-31.85-10.32l31.14-9.17Z"/><path id="b9466416-f39b-4119-aff1-8a668656d973" data-name="path18040" class="a23adb71-94a4-419d-b06b-679025908cbc" d="M231.16,212.69c2.84,6.1-3.47-9.85-41.25-6.38-50.8,3.38-41.9-64.19,7.71-34.59C216.21,182.81,223.62,196.53,231.16,212.69Z"/><path id="a8248535-6583-4582-9109-8da1f004dc5f" data-name="path84-5-3-3-0-2" class="e7ad2bc5-2774-4085-a00b-864f3b7f4b79" d="M85.57,11.67,51.38,34.34h0C39,29,28.72,25.85,15.15,21.64,0,17,39.2,26.59,43.11,115.66c4.4,63.35,50,81.21,79.12,68.16,29.16,13,74.7-4.82,79.1-68.16,3.42-77.94,33.84-95.06,31.27-95a26.06,26.06,0,0,0-3.3,1c-15,4.63-29.09,9.33-42.6,15.47L152.12,16.49S137.39,28.6,128.06,35.36h0Z"/><path id="ee80f9c3-8561-449a-8df0-01308fbf8192" data-name="path28806" class="a1988794-ca79-4c69-97f8-ed9e7deefb1e" d="M134.22,105.91s20.62-23.77,38.35-40.4c14.85-13.92,57.36-43,57.36-43s-41.13,11-58.18,20.79c-18.49,10.58-48.87,41.17-48.87,41.17Z"/><path id="b5deb633-0386-426f-8dc9-e70f365b449d" data-name="path84-5-3-3-0" class="a23adb71-94a4-419d-b06b-679025908cbc" d="M232.59,20.68a26.15,26.15,0,0,0-3.29,1C189.26,34.06,155,47,123.22,86.73c-.34.42-.67.85-1,1.27,38.53,49.16,25.58,84.38,0,95.82,29.16,13,74.7-4.83,79.1-68.16,3.42-77.94,33.84-95.06,31.27-95Z"/><path id="b333a8f8-b9db-4fb8-9349-4f7593129607" data-name="path27346" class="a1988794-ca79-4c69-97f8-ed9e7deefb1e" d="M14.17,21.69C6.3,19.34,86.85,65.1,117,114c25.32,41.12,18.5,51.53,18.5,51.53s37.08-8.62-17-82.53C108.2,69,68.36,37.83,14.17,21.69Z"/><path id="fd6c7564-210b-4b0e-a139-63e77cc5c302" data-name="path84-5-4-0" class="a23adb71-94a4-419d-b06b-679025908cbc" d="M15.14,21.64C0,17,39.2,26.59,43.11,115.66c8.29,119.4,162.81,77.2,78.11-28.93C89.48,47,55.18,34.06,15.14,21.64Z"/><path id="b3854593-27ed-40b5-be66-1b475222a7de" data-name="path30185" class="a1988794-ca79-4c69-97f8-ed9e7deefb1e" d="M76.08,23.23,109.65,45,126,32.6,94.46,12.54Z"/><path id="e52540db-3f75-4836-acb6-cf7d9f126efa" data-name="path13322-6-9" class="ff13bbdb-0679-4efa-b213-327f8bd4b779" d="M85.57,11.67,51.38,34.34a174.69,174.69,0,0,1,40.34,23l1.52-.51c3.22-1.85,21.82-12.55,32.09-19.57.83-.57,1.76-1.23,2.73-1.93Z"/><path id="a2e9e51b-b9f5-47d8-8fc1-9890aab87ca9" data-name="path29917" class="a1988794-ca79-4c69-97f8-ed9e7deefb1e" d="M135.52,25.29,169.08,47,185.4,34.66,153.9,14.6Z"/><path id="e0d7ab35-c570-41d1-b98f-1ffac24f0c6b" data-name="path14185-7" class="ff13bbdb-0679-4efa-b213-327f8bd4b779" d="M152.12,16.49s-18,14.78-26.79,20.8C114.11,45,92,57.57,92,57.57a173.29,173.29,0,0,1,29.23,29.16l1,1.27c.33-.42.66-.85,1-1.27C143.11,61.8,164,47.43,186.7,37.12Z"/></svg>